<svg xmlns="http://www.w3.org/2000/svg" width="20" height="14" viewBox="0 0 20 14" fill="none">
  <g clip-path="url(#clip0_1_1934)">
    <path fill-rule="evenodd" clip-rule="evenodd" d="M3.98043 0.8697C5.05652 0.8697 5.92609 1.7394 5.92609 2.81348C5.92609 3.88756 5.05435 4.75726 3.98043 4.75726C2.90652 4.75726 2.03478 3.88756 2.03478 2.81348C2.03478 1.7394 2.90652 0.8697 3.98043 0.8697ZM6.79783 2.81348C6.79783 1.25889 5.53696 0 3.98261 0C2.42826 0 1.16522 1.25889 1.16522 2.81348C1.16522 4.36807 2.42609 5.62696 3.98043 5.62696C5.53478 5.62696 6.79565 4.36807 6.79565 2.81348H6.79783ZM14.0717 2.81348C14.0717 1.74157 14.9435 0.8697 16.0174 0.8697C17.0913 0.8697 17.963 1.7394 17.963 2.81348C17.963 3.88756 17.0913 4.75726 16.0174 4.75726C14.9435 4.75726 14.0717 3.88756 14.0717 2.81348ZM16.0196 0C14.4652 0 13.2043 1.25889 13.2043 2.81348C13.2043 4.36807 14.4652 5.62696 16.0196 5.62696C17.5739 5.62696 18.8348 4.36807 18.8348 2.81348C18.8348 1.25889 17.5739 0 16.0196 0ZM13.4565 8.08386C13.887 7.57074 14.5348 7.2446 15.263 7.2446H16.7761C18.0826 7.2446 19.1304 8.29259 19.1304 9.59714V11.5627C19.1304 11.8018 19.3261 11.9975 19.5652 11.9975C19.8043 11.9975 20 11.8018 20 11.5627V9.59714C20 7.81208 18.5609 6.3749 16.7761 6.3749H15.263C14.2696 6.3749 13.3826 6.82062 12.7913 7.52291C12.637 7.70772 12.6609 7.98167 12.8435 8.13605C13.0283 8.29042 13.3022 8.2665 13.4565 8.08386ZM10 2.87218C8.92391 2.87218 8.05435 3.74189 8.05435 4.81597C8.05435 5.89004 8.92609 6.75975 10 6.75975C11.0739 6.75975 11.9457 5.89004 11.9457 4.81597C11.9457 3.74189 11.0739 2.87218 10 2.87218ZM7.18478 4.81597C7.18478 3.26138 8.44565 2.00248 10 2.00248C11.5543 2.00248 12.8152 3.26138 12.8152 4.81597C12.8152 6.37055 11.5543 7.62945 10 7.62945C8.44565 7.62945 7.18478 6.37055 7.18478 4.81597ZM6.88913 11.5996C6.88913 10.2973 7.93913 9.24709 9.24348 9.24709H10.7565C12.063 9.24709 13.1109 10.2951 13.1109 11.5996V13.5651C13.1109 13.8043 13.3065 14 13.5457 14C13.7848 14 13.9804 13.8043 13.9804 13.5651V11.5996C13.9804 9.81457 12.5413 8.37739 10.7565 8.37739H9.24348C7.4587 8.37739 6.01957 9.81457 6.01957 11.5996V13.5651C6.01957 13.8043 6.21522 14 6.45435 14C6.69348 14 6.88913 13.8043 6.88913 13.5651V11.5996ZM3.22391 6.3749C1.43913 6.3749 0 7.81208 0 9.59714V11.5627C0 11.8018 0.195652 11.9975 0.434783 11.9975C0.673913 11.9975 0.869565 11.8018 0.869565 11.5627V9.59714C0.869565 8.29477 1.91957 7.2446 3.22391 7.2446H4.73696C5.46522 7.2446 6.11087 7.57074 6.54348 8.08386C6.69783 8.26867 6.97174 8.29042 7.15652 8.13605C7.3413 7.98167 7.36304 7.70772 7.2087 7.52291C6.61739 6.82062 5.73043 6.3749 4.73696 6.3749H3.22391Z" fill="#3374B0"/>
  </g>
  <defs>
    <clipPath id="clip0_1_1934">
      <rect width="20" height="14" fill="white"/>
    </clipPath>
  </defs>
</svg>