<svg xmlns="http://www.w3.org/2000/svg" width="20" height="21" viewBox="0 0 20 21" fill="none">
  <path d="M17.5938 2.78682H14.9147V0.455616C14.9147 0.204004 14.7107 0 14.4589 0C14.2073 0 14.0031 0.204008 14.0031 0.455616V2.78682H5.99703V0.455616C5.99703 0.204004 5.79287 0 5.54126 0C5.28949 0 5.08548 0.204008 5.08548 0.455616V2.78682H2.4064C1.76844 2.78758 1.15689 3.04133 0.705689 3.49251C0.254643 3.94355 0.00089842 4.5551 0 5.19306V18.0119C0.00091549 18.6499 0.254663 19.2614 0.705689 19.7126C1.15689 20.1637 1.76844 20.4174 2.4064 20.4182H17.5936C18.2315 20.4174 18.8431 20.1637 19.2943 19.7126C19.7453 19.2614 19.9991 18.6499 20 18.0119V5.19306C19.9991 4.5551 19.7453 3.94355 19.2943 3.49251C18.8431 3.04131 18.2315 2.78756 17.5936 2.78682H17.5938ZM2.40655 3.69821H5.08564V5.95953C5.08564 6.21114 5.28965 6.41514 5.54141 6.41514C5.79303 6.41514 5.99718 6.21113 5.99718 5.95953V3.69821H14.0033V5.95953C14.0033 6.21114 14.2074 6.41514 14.459 6.41514C14.7108 6.41514 14.9148 6.21113 14.9148 5.95953V3.69821H17.5939C17.9902 3.69866 18.3703 3.85628 18.6504 4.13659C18.9307 4.41689 19.0883 4.79682 19.0888 5.1931V8.01148H0.911818V5.1931C0.912276 4.79682 1.0699 4.4169 1.35021 4.13659C1.63035 3.8563 2.01043 3.69867 2.40671 3.69821H2.40655ZM17.5938 19.5069H2.40655C2.01027 19.5064 1.6302 19.3488 1.35005 19.0685C1.06975 18.7882 0.91213 18.4083 0.911662 18.012V8.9231H19.0886V18.012C19.0882 18.4083 18.9306 18.7882 18.6503 19.0685C18.3701 19.3488 17.99 19.5064 17.5938 19.5069Z" fill="#3374B0"/>
  <path d="M6.54721 10.52H4.536C4.41515 10.5198 4.29919 10.5679 4.21374 10.6533C4.1283 10.7388 4.08023 10.8547 4.08038 10.9756V12.9868C4.08023 13.1076 4.1283 13.2236 4.21374 13.309C4.29919 13.3946 4.41515 13.4426 4.536 13.4426H6.54721C6.66806 13.4426 6.78402 13.3946 6.86947 13.309C6.95492 13.2236 7.00298 13.1076 7.00283 12.9868V10.9756C7.00298 10.8547 6.95492 10.7388 6.86947 10.6533C6.78402 10.5679 6.66806 10.5198 6.54721 10.52ZM6.09144 12.531H4.99178V11.4313H6.09144V12.531Z" fill="#3374B0"/>
  <path d="M11.0059 10.52H8.99508C8.87423 10.5198 8.75827 10.5679 8.67282 10.6533C8.58737 10.7388 8.53931 10.8547 8.53946 10.9756V12.9868C8.53931 13.1076 8.58737 13.2236 8.67282 13.309C8.75827 13.3946 8.87423 13.4426 8.99508 13.4426H11.0059C11.1267 13.4426 11.2427 13.3946 11.3281 13.309C11.4136 13.2236 11.4616 13.1076 11.4616 12.9868V10.9756C11.4616 10.8547 11.4136 10.7388 11.3281 10.6533C11.2427 10.5679 11.1267 10.5198 11.0059 10.52ZM10.5501 12.531H9.45085V11.4313H10.5501V12.531Z" fill="#3374B0"/>
  <path d="M15.4648 10.5198H13.4535C13.3327 10.5197 13.2167 10.5677 13.1313 10.6532C13.0458 10.7386 12.9978 10.8546 12.9979 10.9755V12.9867C12.9978 13.1075 13.0458 13.2235 13.1313 13.3089C13.2167 13.3945 13.3327 13.4424 13.4535 13.4424H15.4648C15.5856 13.4424 15.7016 13.3945 15.787 13.3089C15.8725 13.2235 15.9205 13.1075 15.9204 12.9867V10.9755C15.9205 10.8546 15.8725 10.7386 15.787 10.6532C15.7016 10.5677 15.5856 10.5197 15.4648 10.5198ZM15.009 12.5309H13.9093V11.4312H15.009V12.5309Z" fill="#3374B0"/>
  <path d="M6.54717 15.2572H4.53596C4.41511 15.257 4.29915 15.3051 4.2137 15.3906C4.12825 15.476 4.08019 15.592 4.08034 15.7128V17.724C4.08019 17.8449 4.12825 17.9608 4.2137 18.0463C4.29915 18.1319 4.41511 18.1798 4.53596 18.1798H6.54717C6.66802 18.1798 6.78398 18.1319 6.86943 18.0463C6.95487 17.9608 7.00294 17.8449 7.00279 17.724V15.7128C7.00294 15.592 6.95487 15.476 6.86943 15.3906C6.78398 15.3051 6.66802 15.2571 6.54717 15.2572ZM6.09139 17.2683H4.99173V16.1686H6.09139V17.2683Z" fill="#3374B0"/>
  <path d="M11.0058 15.2572H8.99499C8.87414 15.257 8.75818 15.3051 8.67273 15.3906C8.58728 15.476 8.53922 15.592 8.53937 15.7128V17.724C8.53922 17.8449 8.58728 17.9608 8.67273 18.0463C8.75818 18.1319 8.87414 18.1798 8.99499 18.1798H11.0058C11.1266 18.1798 11.2426 18.1319 11.328 18.0463C11.4135 17.9608 11.4615 17.8449 11.4615 17.724V15.7128C11.4615 15.592 11.4135 15.476 11.328 15.3906C11.2426 15.3051 11.1266 15.2571 11.0058 15.2572ZM10.55 17.2683H9.45076V16.1686H10.55V17.2683Z" fill="#3374B0"/>
  <path d="M15.4648 15.2572H13.4535C13.3327 15.257 13.2167 15.3051 13.1313 15.3906C13.0458 15.476 12.9978 15.592 12.9979 15.7128V17.724C12.9978 17.8449 13.0458 17.9608 13.1313 18.0463C13.2167 18.1319 13.3327 18.1798 13.4535 18.1798H15.4648C15.5856 18.1798 15.7016 18.1319 15.787 18.0463C15.8725 17.9608 15.9205 17.8449 15.9204 17.724V15.7128C15.9205 15.592 15.8725 15.476 15.787 15.3906C15.7016 15.3051 15.5856 15.2571 15.4648 15.2572ZM15.009 17.2683H13.9093V16.1686H15.009V17.2683Z" fill="#3374B0"/>
</svg>