<svg xmlns="http://www.w3.org/2000/svg" width="18" height="17" viewBox="0 0 18 17" fill="none">
  <path d="M16.2165 16.0595H1.78261C1.13932 16.0595 0.563134 15.7269 0.241343 15.1697C-0.0804476 14.6124 -0.0804476 13.9473 0.241343 13.39L7.45844 0.889811C7.78023 0.332585 8.35642 0 8.99971 0C9.643 0 10.2192 0.332585 10.541 0.889811L17.7581 13.39C18.0799 13.9473 18.0799 14.6124 17.7581 15.1697C17.4363 15.7269 16.8604 16.0595 16.2168 16.0595H16.2165ZM8.5195 1.50247L1.30241 14.0027C1.15799 14.2527 1.25427 14.4736 1.30241 14.557C1.35054 14.6405 1.4935 14.8342 1.78232 14.8342H16.2165C16.5053 14.8342 16.6486 14.6405 16.6964 14.557C16.7446 14.4736 16.8408 14.2527 16.6964 14.0027L9.47962 1.50247C9.33521 1.25245 9.09569 1.22531 8.99971 1.22531C8.90372 1.22531 8.66421 1.25245 8.51979 1.50247H8.5195Z" fill="#3374B0"/>
  <path d="M8.86223 10.3284C8.52381 10.3284 8.24957 10.0541 8.24957 9.71572V3.61249C8.24957 3.27407 8.52381 2.99983 8.86223 2.99983C9.20065 2.99983 9.47489 3.27407 9.47489 3.61249V9.71572C9.47489 10.0541 9.20065 10.3284 8.86223 10.3284Z" fill="#3374B0"/>
  <path d="M8.86223 12.7314C8.52381 12.7314 8.24957 12.4572 8.24957 12.1188V11.6135C8.24957 11.2751 8.52381 11.0008 8.86223 11.0008C9.20065 11.0008 9.47489 11.2751 9.47489 11.6135V12.1188C9.47489 12.4572 9.20065 12.7314 8.86223 12.7314Z" fill="#3374B0"/>
</svg>