<svg xmlns="http://www.w3.org/2000/svg" width="82" height="21" viewBox="0 0 82 21" fill="none">
  <path d="M0.395355 0.67028C0.395355 0.837839 0.485205 0.874068 0.53013 0.982755C0.759247 0.892183 0.97938 0.788024 1.19502 0.67028C1.13212 0.108731 0.69186 0.588765 0.395355 0.67028Z" fill="#DF1517"/>
  <path d="M2.04864 0.357758C1.55446 0.778919 0.849139 0.996293 0.408875 1.4718C0.476262 1.5352 0.489739 1.65747 0.588574 1.6937C1.14115 1.34047 1.68924 0.987236 2.26877 0.670233C2.21486 0.54796 2.1924 0.393987 2.04864 0.357758Z" fill="#DF1517"/>
  <path d="M0.350403 2.49073C0.413298 2.56318 0.476193 2.63564 0.530103 2.71716C1.01529 2.40921 1.47353 2.06051 1.90481 1.67557C2.39 1.35857 2.85272 1.00081 3.27951 0.606819C3.25705 0.498132 3.19415 0.398502 3.09981 0.33963C2.20131 1.0778 1.23542 1.72992 0.350403 2.47261" fill="#DF1517"/>
  <path d="M4.47455 0.357758C3.32447 1.2182 2.01266 2.01976 0.840119 2.80774C0.673896 2.91643 0.449272 3.04323 0.390869 3.2606C0.453764 3.2606 0.444779 3.35571 0.480719 3.39646C0.664911 3.42816 0.871566 3.26513 1.01083 3.17456C2.25076 2.33677 3.45475 1.45368 4.69019 0.67929C4.65874 0.552488 4.58237 0.439273 4.47006 0.366815" fill="#DF1517"/>
  <path d="M8.99398 0.357758C7.57435 1.60766 6.06038 2.90284 4.56437 4.18897C3.293 5.27131 1.9767 6.34007 0.750245 7.39524C0.63344 7.49487 0.300995 7.67148 0.440263 7.92961C0.664888 8.09717 0.853572 7.76205 0.970377 7.66242C3.00099 5.93249 5.01362 4.16633 7.04423 2.49074C7.81245 1.89749 8.54473 1.25895 9.23657 0.57966C9.11977 0.54796 9.14223 0.375872 9.01644 0.357758" fill="#DF1517"/>
  <path d="M5.4449 0.398558C4.64523 1.10049 3.68833 1.72544 2.78983 2.40474C2.13842 2.89836 1.50049 3.36933 0.885015 3.83125C0.723286 3.95353 0.327946 4.10297 0.435766 4.41092C0.691838 4.52413 0.92994 4.22524 1.10066 4.09844C2.4484 3.11573 3.79615 2.08321 5.08999 1.11408C5.31012 0.95105 5.64257 0.837834 5.70996 0.534416C5.60214 0.507244 5.63808 0.339685 5.44041 0.398558" fill="#DF1517"/>
  <path d="M6.50962 0.398499C4.97767 1.75709 3.39182 3.07944 1.85988 4.36557C1.32527 4.78221 0.822115 5.23507 0.350403 5.72416C0.646908 6.06833 0.952397 5.57924 1.15007 5.41168C2.53376 4.26594 3.89498 3.14737 5.22476 2.0288C5.78183 1.57594 6.31195 1.08232 6.77917 0.602287C6.64888 0.602287 6.71178 0.366798 6.50962 0.421142" fill="#DF1517"/>
  <path d="M10.0138 0.398533C7.01286 3.03419 3.86811 5.75136 0.885097 8.33268C0.700904 8.48665 0.372952 8.6995 0.395414 8.90781C0.633517 9.15236 0.930021 8.80366 1.0603 8.68591C3.30655 6.6752 5.60671 4.71431 7.83948 2.76247C8.67059 2.03789 9.52417 1.33596 10.2789 0.579678C10.1576 0.552506 10.1666 0.394004 10.0138 0.398533Z" fill="#DF1517"/>
  <path d="M11.074 0.398492C9.27704 1.96992 7.53395 3.51418 5.58421 5.2577C4.0927 6.58006 2.33613 8.05639 0.885055 9.33346C0.736803 9.46932 0.251613 9.8135 0.435806 10.0037C0.619998 10.1939 1.00635 9.6867 1.10069 9.60518C1.40618 9.33799 1.67573 9.15232 1.81051 9.02552C4.14212 6.96499 6.35692 4.94976 8.63461 2.96622C9.42529 2.27787 10.3193 1.58046 11.0246 0.873997C11.1055 0.792482 11.3526 0.692852 11.2492 0.516236C11.1639 0.516236 11.2133 0.344148 11.0695 0.380377" fill="#DF1517"/>
  <path d="M12.4937 0.398499C10.4855 2.09673 8.52681 3.81308 6.28954 5.75133C4.70369 7.10992 3.01451 8.61342 1.37026 10.0716C1.14564 10.2754 0.202212 10.8551 0.440314 11.0951C0.611029 11.2672 0.655954 11.0951 0.840146 10.9592C4.55095 7.74392 8.31117 4.45614 11.9636 1.25441C12.2062 1.03703 12.588 0.901176 12.6689 0.538886C12.579 0.538886 12.5835 0.421142 12.4937 0.403027" fill="#DF1517"/>
  <path d="M1.01533 11.4076C0.817661 11.5797 0.184219 11.9465 0.485217 12.1639C0.611007 12.2499 0.682887 12.1639 0.885049 11.9827C1.08721 11.8016 1.19952 11.6521 1.28488 11.5842C3.311 9.79539 5.25625 8.13339 7.21947 6.41251C9.18269 4.69163 11.1504 2.88924 13.0597 1.20006C13.2888 1.00081 13.9133 0.747202 13.5898 0.398499H13.5045C9.46572 3.93988 5.11698 7.80733 1.01533 11.4076Z" fill="#DF1517"/>
  <path d="M14.5737 0.398499C13.3562 1.50801 12.0983 2.60394 10.8539 3.74515C7.47554 6.83367 4.05225 9.94936 0.700853 13.0968C0.561585 13.219 0.251603 13.3504 0.431303 13.5496C0.611003 13.7489 0.781717 13.4953 0.920985 13.373C1.39719 12.9564 1.94527 12.3993 2.24627 12.1231C4.11515 10.4294 5.86722 8.83532 7.63727 7.18237C9.88352 5.10374 12.1657 3.00698 14.376 0.991748C14.4973 0.878533 14.7624 0.769846 14.7309 0.538886C14.6366 0.538886 14.6411 0.421142 14.5512 0.403027" fill="#DF1517"/>
  <path d="M13.5584 2.26882C9.43875 6.07739 5.31913 9.88144 1.19502 13.6764C1.01532 13.8395 0.215656 14.3829 0.44028 14.6093C0.664905 14.8357 0.795187 14.4644 0.929962 14.3421C1.45109 13.8621 2.03961 13.3322 2.39002 12.9835C5.67853 9.92219 8.83676 7.02387 12.0938 4.03045C13.2035 3.03416 14.4389 1.97446 15.5261 0.932876C15.6519 0.815132 15.9753 0.638516 15.7058 0.398499H15.6204L13.5808 2.26882" fill="#DF1517"/>
  <path d="M14.7983 2.35943C14.0975 2.98438 13.4011 3.63651 12.7138 4.27504C8.77386 7.93417 4.71264 11.4846 0.750262 15.1437C0.58404 15.2977 0.27855 15.506 0.44028 15.6736C0.60201 15.8411 0.88953 15.4698 0.970395 15.4064C6.31197 10.5562 11.5278 5.89629 16.7885 1.06425C17.076 0.806117 17.4129 0.516285 17.0131 0.394012C16.2763 1.02349 15.5441 1.69373 14.7983 2.35491" fill="#DF1517"/>
  <path d="M20.1578 2.18278C19.8793 2.33676 19.6232 2.53149 19.4031 2.76245C13.1945 8.22396 7.03975 13.7625 0.885031 19.2874C0.655914 19.4912 0.287529 19.6451 0.435781 19.8671C0.525631 19.9984 0.534616 20.0074 0.745764 19.8671C0.853584 19.7855 0.956911 19.695 1.05575 19.5953C7.38567 13.8304 13.8639 8.22849 20.1578 2.5813C20.2297 2.44997 20.4813 2.41827 20.2926 2.2643C20.2252 2.2643 20.2162 2.19184 20.1578 2.17825" fill="#DF1517"/>
  <path d="M15.2386 7.753C10.6518 11.788 5.88523 15.7777 1.37027 19.8218C1.2939 19.8897 1.01985 19.9848 1.19506 20.0437C1.80604 20.1026 2.18341 19.5319 2.56976 19.1968C3.77825 18.1552 4.98223 17.159 6.16376 16.1264C10.782 12.0507 15.598 8.08812 20.1219 4.00783C20.1938 3.94896 20.3825 3.88103 20.3421 3.74517C20.2388 3.70894 20.2253 3.5912 20.1219 3.56403C18.5361 4.98148 16.8739 6.32196 15.2386 7.753Z" fill="#DF1517"/>
  <path d="M19.8029 5.34372C18.3968 6.43965 16.8558 7.80276 15.4182 9.0436C11.1594 12.7118 6.8196 16.2894 2.61463 19.9576C2.54275 19.9576 2.46637 20.0753 2.61463 20.0436C3.18068 20.1387 3.51312 19.5908 3.85455 19.2873C9.11976 14.8946 14.3266 10.3343 19.5379 5.96867C19.6771 5.85093 20.0141 5.69242 19.9377 5.43429C19.8748 5.43429 19.8613 5.36183 19.8029 5.34372Z" fill="#DF1517"/>
  <path d="M20.1578 6.41256C20.1578 6.32199 20.032 6.41256 20.023 6.45785C14.7893 10.7193 9.46568 15.1347 4.25438 19.378C4.1241 19.4776 3.80513 19.6135 3.89947 19.8671C4.10164 20.1116 4.26786 19.7811 4.38466 19.6905C5.61561 18.6942 6.82409 17.7251 8.0146 16.7514C11.9635 13.518 15.9124 10.194 19.8478 7.03751C20.0141 6.90165 20.2656 6.77938 20.333 6.54842C20.2432 6.54842 20.2477 6.42615 20.1578 6.41256Z" fill="#DF1517"/>
  <path d="M17.7229 9.40144C14.6276 11.9556 11.4379 14.5188 8.33811 17.0141C7.15209 17.9651 5.88521 18.9025 4.79353 19.8671C4.79353 19.8671 4.55093 19.9577 4.70368 20.0437C5.19785 20.1614 5.49885 19.7222 5.81333 19.464C6.1278 19.2059 6.48271 18.9568 6.7882 18.7078C10.9213 15.3475 15.1083 11.9646 19.2369 8.64063C19.493 8.43685 20.1669 8.18777 19.8569 7.79831H19.767C19.1246 8.35986 18.4193 8.84442 17.7319 9.40144" fill="#DF1517"/>
  <path d="M19.8029 8.86255C17.5162 10.5563 15.0274 12.6258 12.6149 14.5233C11.4334 15.4562 10.2339 16.3665 9.06584 17.2813C7.96518 18.1508 6.81959 19.0338 5.79081 19.9124C5.79081 19.9124 5.58865 19.9667 5.70096 20.0437C6.15021 20.1569 6.46469 19.7901 6.76568 19.5546C10.8808 16.285 15.0319 12.97 19.1245 9.75469C19.4166 9.52826 19.8029 9.3607 19.9646 8.99841C19.8793 8.99841 19.8793 8.87613 19.7894 8.86255" fill="#DF1517"/>
  <path d="M20.1578 9.93129C19.5424 10.3253 18.9493 10.76 18.3878 11.2265C17.8487 11.6341 17.2736 12.0507 16.748 12.4718C13.6707 14.9173 10.4585 17.3265 7.39464 19.7176C7.28682 19.8082 6.99481 19.9486 7.13408 20.0301C7.58333 20.1569 7.83041 19.7992 8.10895 19.5773C11.1459 17.236 14.1603 14.9082 17.1479 12.5896C18.0913 11.856 19.1515 11.1495 20.023 10.4023C20.1174 10.3298 20.378 10.194 20.2926 10.0038C20.2252 10.0038 20.2162 9.93129 20.1578 9.91318" fill="#DF1517"/>
  <path d="M20.1579 11.6702C16.3033 14.3421 12.3095 17.2585 8.41898 20.0436H8.99402C11.8198 17.965 14.7489 15.9679 17.5298 13.9436L18.9494 12.9156C19.4301 12.6031 19.8838 12.2454 20.2971 11.8468C20.1848 11.8468 20.2342 11.6748 20.1219 11.6702" fill="#DF1517"/>
  <path d="M19.8029 12.739C19.8029 12.7118 19.8029 12.6847 19.758 12.6937C16.5099 15.1301 13.2304 17.5348 9.92389 19.9124C9.92389 19.9758 9.7352 20.0482 9.92389 20.0437H10.3731C13.1854 18.0058 16.0382 15.8728 18.7921 13.8485C19.2278 13.5859 19.6277 13.2734 19.9871 12.9156C19.9107 12.8794 19.9197 12.7571 19.8119 12.739" fill="#DF1517"/>
  <path d="M19.803 14.1203C17.0401 16.0902 14.2952 18.0647 11.5637 20.0437H12.1388C14.102 18.6217 16.1056 17.1726 18.0329 15.7687C18.7338 15.3475 19.3852 14.8539 19.9782 14.2969C19.8659 14.2969 19.9198 14.1248 19.803 14.1203Z" fill="#DF1517"/>
  <path d="M19.758 15.189C18.7832 16.0041 17.669 16.8012 16.6133 17.639C15.7148 18.3409 14.7848 19.0564 13.9582 19.7312C13.8729 19.8036 13.5898 20.0165 13.7336 20.0437H14.1828C15.6339 18.8662 17.1434 17.716 18.5675 16.5702C19.0797 16.2215 19.5559 15.8185 19.9827 15.3656C19.8569 15.3656 19.9287 15.1573 19.7625 15.189" fill="#DF1517"/>
  <path d="M19.7175 16.6201C18.5135 17.7115 17.1748 18.667 15.9933 19.7901C16.0921 19.8263 16.1056 19.9441 16.1685 20.012C16.8199 19.4912 17.4803 18.9885 18.1227 18.4541C18.7696 17.9379 19.3896 17.3854 19.9781 16.8057C19.9152 16.7242 19.8838 16.6065 19.7175 16.6291" fill="#DF1517"/>
  <path d="M19.7176 17.3265C19.0122 18.119 18.0778 18.9794 17.368 19.7312C17.2826 19.8218 17.049 20.0029 17.1883 20.0437H17.5432C18.3923 19.2194 19.1964 18.35 20.023 17.5031C19.8973 17.4714 19.9107 17.2948 19.7176 17.3265Z" fill="#DF1517"/>
  <path d="M19.7176 18.7077C19.3178 19.0746 18.8865 19.4052 18.4283 19.6905C18.4597 19.8173 18.5406 19.9305 18.6529 19.9984C19.1021 19.6542 19.5514 19.3146 19.9782 18.9749C19.9287 18.8527 19.9108 18.6896 19.7176 18.7077Z" fill="#DF1517"/>
  <path d="M7.92929 0H8.01465C8.36057 0.366818 7.89785 0.516263 7.5654 0.801566C5.46741 2.64924 3.45028 4.42446 1.36126 6.23591C1.18156 6.39442 0.548123 7.14164 0.386393 6.81558C0.296543 6.62085 1.0423 6.04571 1.18606 5.90985C3.46825 3.93084 5.75043 1.96995 7.9248 0.0226431V0H7.92929Z" fill="#DF1517"/>
  <path d="M1.19499 0.67028C0.979351 0.788024 0.759218 0.892183 0.530101 0.982755C0.485176 0.874068 0.377356 0.837839 0.395326 0.67028C0.691831 0.588765 1.1321 0.108731 1.19499 0.67028Z" fill="#DF1517"/>
  <path d="M2.25525 0.670233C1.67572 0.987236 1.12763 1.34047 0.575055 1.6937C0.47622 1.65747 0.462743 1.5352 0.395355 1.4718C0.844605 1.01894 1.54094 0.778919 2.03512 0.357758C2.17888 0.393987 2.20134 0.54796 2.25525 0.670233Z" fill="#DF1517"/>
  <path d="M3.09981 0.357745C3.19415 0.416617 3.25705 0.516246 3.27951 0.624933C2.85272 1.01439 2.39 1.3631 1.90481 1.67557C1.47353 2.05145 1.01529 2.39563 0.530103 2.69904C0.476193 2.61753 0.413298 2.54507 0.350403 2.47261C1.2489 1.72992 2.2103 1.0778 3.09981 0.33963" fill="#DF1517"/>
  <path d="M4.69467 0.670226C3.45924 1.44462 2.25525 2.3277 1.01532 3.1655C0.876052 3.25607 0.669397 3.4191 0.485205 3.3874C0.449265 3.34664 0.45825 3.2606 0.395355 3.25154C0.449265 3.04322 0.67389 2.91642 0.844605 2.79868C2.01715 2.0107 3.32895 1.20913 4.47903 0.348694C4.59135 0.421152 4.66772 0.534367 4.69917 0.661169" fill="#DF1517"/>
  <path d="M9.23664 0.57966C8.54928 1.25895 7.82599 1.89749 7.06676 2.49074C5.04514 4.16633 3.02351 5.93249 0.992906 7.66243C0.876101 7.76205 0.687416 8.11529 0.462791 7.92961C0.314539 7.67148 0.655969 7.47675 0.772774 7.39524C1.99923 6.34007 3.31553 5.27131 4.5869 4.18897C6.0829 2.90284 7.59688 1.60766 9.0165 0.357758C9.14229 0.357758 9.11983 0.54796 9.23664 0.57966Z" fill="#DF1517"/>
  <path d="M5.71444 0.534416C5.64705 0.837834 5.31461 0.95105 5.09447 1.11408C3.79614 2.08321 2.4439 3.11573 1.10514 4.09844C0.934423 4.22524 0.696321 4.52413 0.440248 4.41092C0.327936 4.10297 0.723276 3.95806 0.889498 3.83125C1.50497 3.37839 2.1429 2.89836 2.79432 2.40474C3.69282 1.72544 4.64972 1.10049 5.44938 0.398558C5.64705 0.339685 5.61111 0.507244 5.71893 0.534416" fill="#DF1517"/>
  <path d="M6.77917 0.57964C6.32992 1.05967 5.78183 1.53065 5.22476 2.00616C3.87701 3.12925 2.52926 4.24329 1.15007 5.38904C0.952397 5.5566 0.646908 6.04569 0.350403 5.70151C0.822115 5.21242 1.32527 4.75956 1.85988 4.34292C3.39182 3.0568 4.97767 1.72538 6.50962 0.375852C6.71178 0.321508 6.64888 0.534354 6.77917 0.556997" fill="#DF1517"/>
  <path d="M10.2789 0.579643C9.52417 1.33592 8.67059 2.03786 7.83948 2.76244C5.59323 4.71428 3.31104 6.67517 1.0603 8.68588C0.930021 8.80815 0.633517 9.13874 0.395414 8.90778C0.372952 8.69946 0.700904 8.48662 0.885097 8.33264C3.86811 5.75133 7.01286 3.03416 10.0138 0.398499C10.1666 0.398499 10.1576 0.552472 10.2789 0.579643Z" fill="#DF1517"/>
  <path d="M11.2537 0.534345C11.357 0.710961 11.1099 0.810591 11.0291 0.892106C10.3238 1.59857 9.42975 2.29145 8.63907 2.98433C6.36138 4.96787 4.14657 6.9831 1.81497 9.04363C1.68019 9.16137 1.41064 9.3561 1.10515 9.62329C1.01081 9.70933 0.655905 10.2211 0.440265 10.0218C0.224625 9.82255 0.73677 9.48743 0.889515 9.35157C2.34059 8.05639 4.09716 6.58006 5.58867 5.27581C7.53841 3.53229 9.28599 1.98803 11.0785 0.416601C11.2223 0.380372 11.1728 0.534345 11.2582 0.55246" fill="#DF1517"/>
  <path d="M12.6689 0.534357C12.588 0.896647 12.2196 1.03251 11.9636 1.24988C8.31117 4.45162 4.55095 7.7394 0.840146 10.9547C0.655954 11.0906 0.611029 11.2627 0.440314 11.0906C0.202212 10.8506 1.14564 10.2709 1.37026 10.0671C3.01451 8.60889 4.70369 7.11897 6.31201 5.7468C8.55825 3.81308 10.508 2.09673 12.5161 0.398499C12.606 0.398499 12.6015 0.520771 12.6913 0.534357" fill="#DF1517"/>
  <path d="M13.5134 0.398499H13.5988C13.9223 0.751731 13.2978 1.00081 13.0687 1.20006C11.1504 2.88924 9.1692 4.71428 7.22844 6.41251C5.28768 8.11074 3.31997 9.79539 1.29385 11.5842C1.2085 11.6521 1.06923 11.8378 0.894021 11.9827C0.718814 12.1276 0.619979 12.2499 0.494189 12.1639C0.193192 11.942 0.826634 11.5797 1.0243 11.4076C5.11697 7.80733 9.4657 3.93988 13.5134 0.398499Z" fill="#DF1517"/>
  <path d="M14.7534 0.5344C14.7849 0.760831 14.5198 0.869518 14.3985 0.987262C12.1927 3.0025 9.906 5.09925 7.65975 7.17789C5.86275 8.83084 4.11967 10.4249 2.26876 12.1186C1.96776 12.3949 1.41968 12.9519 0.943472 13.3685C0.804204 13.4908 0.588565 13.6765 0.45379 13.5451C0.319015 13.4138 0.584072 13.2236 0.72334 13.0923C4.06576 9.92223 7.48904 6.82919 10.8674 3.74066C12.1118 2.59945 13.3697 1.50352 14.5872 0.394012C14.677 0.394012 14.6725 0.516285 14.7669 0.529871" fill="#DF1517"/>
  <path d="M15.598 0.398499H15.6833C15.9619 0.638516 15.6294 0.815132 15.5036 0.932876C14.4389 1.97446 13.2035 3.03416 12.0938 4.0531C8.83677 7.04652 5.67855 9.94031 2.39004 13.0062C2.03963 13.3322 1.45111 13.8621 0.929982 14.3648C0.795207 14.487 0.624493 14.8176 0.4403 14.632C0.256108 14.4463 1.01534 13.8621 1.19504 13.6945C5.31466 9.88143 9.43877 6.07286 13.5584 2.26882L15.598 0.398499Z" fill="#DF1517"/>
  <path d="M17.0131 0.398499C17.413 0.520771 17.076 0.810603 16.7885 1.06873C11.5278 5.88719 6.31199 10.5607 0.970414 15.4109C0.903026 15.4743 0.619999 15.8637 0.440299 15.6781C0.260599 15.4924 0.584059 15.3022 0.750281 15.1482C4.71266 11.4846 8.77388 7.93413 12.7138 4.27953C13.4012 3.64099 14.0975 2.98887 14.7983 2.36392C15.4991 1.73897 16.2763 1.03251 17.0131 0.403027" fill="#DF1517"/>
  <path d="M0 16.9687V16.8827C5.97951 11.6386 11.9321 6.11364 17.8981 0.801563C18.1093 0.615889 18.3474 0.348701 18.5181 0.489088C18.7337 0.71099 18.2216 0.978179 18.1677 1.02347C16.7525 2.26884 15.4317 3.49609 14.1783 4.64636C12.6643 6.00495 11.0336 7.39977 9.56902 8.72212C6.72077 11.3306 3.90398 13.93 1.03327 16.4706C0.853574 16.6608 0.660397 16.8374 0.458235 17.005C0.25158 17.1272 0.1797 17.1499 0.00898499 16.9597" fill="#DF1517"/>
  <path d="M0 17.6842V17.5937C6.28949 12.0597 12.7093 6.37173 18.9179 0.801525C19.0617 0.674723 19.3177 0.348662 19.5828 0.48905C19.6681 0.801525 19.3043 0.941912 19.1335 1.06871C18.5181 1.61668 17.9116 2.142 17.3365 2.67637C11.9455 7.49936 6.48267 12.3495 1.02878 17.168C0.673874 17.4804 0.363892 18.0737 0.0134775 17.7023" fill="#DF1517"/>
  <path d="M0 19.0655V19.0202C6.37485 13.2372 12.9519 7.29561 19.3177 1.51256C19.4974 1.35406 19.74 0.941952 19.9422 1.20008C20.0006 1.48992 19.6592 1.68465 19.4929 1.82956C16.3302 4.61014 13.2798 7.38165 10.189 10.2437C7.17452 13.0288 4.03875 15.8909 0.929947 18.6625C0.534607 19.0112 0.23361 19.5093 0 19.0655Z" fill="#DF1517"/>
  <path d="M20.2926 2.26881C20.4813 2.42279 20.2297 2.45449 20.1579 2.58582C13.8684 8.22848 7.38569 13.8304 1.06026 19.5953C0.961422 19.695 0.858094 19.7855 0.750274 19.867C0.539127 20.0074 0.530142 19.9984 0.440292 19.867C0.287547 19.6451 0.655932 19.4912 0.889542 19.2874C7.04426 13.7625 13.199 8.22395 19.4076 2.76243C19.6277 2.53147 19.8838 2.33674 20.1624 2.18277C20.2208 2.18277 20.2297 2.26428 20.2971 2.26881" fill="#DF1517"/>
  <path d="M20.1129 3.56403C20.2162 3.5912 20.2297 3.70894 20.333 3.74517C20.3734 3.88103 20.1848 3.94896 20.1129 4.00783C15.5755 8.08359 10.773 12.0507 6.1547 16.1264C4.98216 17.159 3.77817 18.1552 2.5607 19.1968C2.17435 19.5319 1.79698 20.1026 1.186 20.0437C1.01079 19.9848 1.28483 19.8897 1.3612 19.8218C5.87616 15.7777 10.6427 11.788 15.2295 7.753C16.8738 6.32196 18.536 4.98148 20.1129 3.56403Z" fill="#DF1517"/>
  <path d="M19.9378 5.43429C20.0141 5.69242 19.6772 5.85093 19.5379 5.96867C14.3266 10.3343 9.11983 14.8946 3.84564 19.2873C3.48624 19.5862 3.17177 20.1387 2.60571 20.0436C2.45746 20.0753 2.53383 19.9576 2.60571 19.9576C6.81069 16.2849 11.1415 12.7118 15.4093 9.0436C16.8469 7.80276 18.3879 6.43965 19.794 5.34372C19.8524 5.34372 19.8659 5.42523 19.9288 5.43429" fill="#DF1517"/>
  <path d="M20.333 6.54836C20.2656 6.77932 20.0141 6.90159 19.8478 7.03745C15.9124 10.2075 11.9635 13.5179 8.0146 16.7513C6.82409 17.725 5.61561 18.6941 4.38466 19.6904C4.26786 19.781 4.10164 20.1116 3.89947 19.867C3.80513 19.6134 4.1241 19.4776 4.25438 19.3779C9.46568 15.1346 14.7893 10.7328 20.0186 6.45779C20.0186 6.42156 20.1668 6.32193 20.1533 6.4125C20.2432 6.4125 20.2387 6.53477 20.3285 6.54836" fill="#DF1517"/>
  <path d="M19.758 7.79831H19.8479C20.1579 8.16513 19.484 8.43685 19.2279 8.64063C15.0993 11.9646 10.9123 15.3475 6.77921 18.7078C6.47372 18.9568 6.12331 19.2059 5.80434 19.464C5.48537 19.7222 5.18887 20.1614 4.69469 20.0437C4.54195 19.9577 4.78454 19.8626 4.78454 19.8671C5.87622 18.9025 7.1431 17.9651 8.32912 17.0141C11.4379 14.5188 14.6186 11.9556 17.7229 9.40144C18.3968 8.84442 19.1156 8.35986 19.758 7.79831Z" fill="#DF1517"/>
  <path d="M19.9781 8.99841C19.8164 9.3607 19.43 9.52826 19.138 9.75469C15.0453 12.97 10.8943 16.285 6.77913 19.5546C6.47813 19.7901 6.17713 20.1569 5.71441 20.0437C5.60209 19.9667 5.79527 19.9169 5.80426 19.9124C6.81057 19.0338 7.97862 18.1508 9.07928 17.2813C10.2473 16.3755 11.4468 15.4698 12.6284 14.5233C15.0274 12.6258 17.5162 10.5563 19.8164 8.86255C19.9062 8.86255 19.9062 8.98482 19.9916 8.99841" fill="#DF1517"/>
  <path d="M20.2926 10.0219C20.378 10.2121 20.1174 10.3479 20.023 10.4204C19.1515 11.1676 18.0913 11.8741 17.1479 12.6032C14.1514 14.9218 11.1414 17.2541 8.10895 19.5954C7.83041 19.8127 7.56985 20.1705 7.13408 20.0482C6.99481 19.9667 7.28682 19.8263 7.39464 19.7358C10.4361 17.3311 13.6841 14.9218 16.748 12.49C17.2736 12.0688 17.8487 11.6522 18.3878 11.2446C18.9493 10.7781 19.5424 10.3434 20.1578 9.9494C20.2162 9.9494 20.2252 10.0309 20.2926 10.04" fill="#DF1517"/>
  <path d="M20.3331 11.8468C19.9198 12.2454 19.466 12.6031 18.9853 12.9156L17.5657 13.9436C14.7714 15.9724 11.8423 17.965 9.02996 20.0436H8.41898C12.3095 17.2585 16.3033 14.3421 20.1579 11.6702C20.2702 11.6702 20.2208 11.8468 20.3331 11.8468Z" fill="#DF1517"/>
  <path d="M19.9781 12.9157C19.6187 13.2734 19.2189 13.5859 18.7831 13.8486C16.0292 15.8728 13.1765 18.0058 10.3642 20.0437H9.91493C9.72625 20.0437 9.91493 19.9758 9.91493 19.9124C13.2304 17.5394 16.5099 15.1347 19.749 12.6938C19.7849 12.6938 19.7939 12.6938 19.7939 12.739C19.9018 12.739 19.8928 12.8794 19.9691 12.9157" fill="#DF1517"/>
  <path d="M19.9782 14.2969C19.3852 14.8584 18.7293 15.3521 18.0284 15.7687C16.1056 17.1726 14.102 18.6217 12.1388 20.0437H11.5637C14.2862 18.0466 17.0311 16.0721 19.803 14.1203C19.9198 14.1203 19.8659 14.2924 19.9782 14.2969Z" fill="#DF1517"/>
  <path d="M19.9782 15.3656C19.5514 15.8184 19.0752 16.2215 18.563 16.5702C17.1389 17.7159 15.6294 18.8662 14.1784 20.0436H13.7291C13.5853 20.0165 13.8684 19.8036 13.9537 19.7312C14.7803 19.0564 15.7238 18.3454 16.6088 17.6389C17.6645 16.8011 18.7787 16.0041 19.7535 15.189C19.9198 15.1573 19.8479 15.361 19.9737 15.3656" fill="#DF1517"/>
  <path d="M19.9781 16.7921C19.3896 17.3718 18.7696 17.9198 18.1227 18.4315C17.4803 18.9659 16.8199 19.4686 16.1685 19.9893C16.1056 19.9214 16.0921 19.8037 15.9933 19.7674C17.1748 18.6534 18.5135 17.6979 19.7175 16.5974C19.8838 16.5974 19.9152 16.6925 19.9781 16.774" fill="#DF1517"/>
  <path d="M20.0186 17.5257C19.1919 18.3726 18.3878 19.2421 17.5387 20.0663H17.1883C17.049 20.0255 17.2826 19.8444 17.368 19.7538C18.0778 19.0021 19.0122 18.1416 19.7176 17.3491C19.9107 17.3174 19.8973 17.494 20.023 17.5257" fill="#DF1517"/>
  <path d="M19.9782 18.9749C19.5289 19.3146 19.0797 19.6542 18.6529 19.9984C18.5406 19.9305 18.4597 19.8172 18.4283 19.6904C18.8865 19.4051 19.3178 19.0746 19.7176 18.7077C19.9108 18.7077 19.9287 18.8526 19.9782 18.9749Z" fill="#DF1517"/>
  <path d="M20.7014 0.67028C20.7014 0.837839 20.7913 0.874068 20.8362 0.982755C21.0653 0.892183 21.2855 0.788024 21.5011 0.67028C21.4427 0.108731 21.0024 0.588765 20.7014 0.67028Z" fill="#51AC34"/>
  <path d="M22.3457 0.357758C21.847 0.778919 21.1462 0.996293 20.7014 1.4718C20.7688 1.5352 20.7868 1.65747 20.8811 1.6937C21.4337 1.34047 21.9818 0.987236 22.5658 0.670233C22.5074 0.54796 22.485 0.393987 22.3457 0.357758Z" fill="#51AC34"/>
  <path d="M20.661 2.49073C20.7239 2.56318 20.7823 2.64017 20.8362 2.71716C21.3214 2.40921 21.7797 2.06051 22.2109 1.67557C22.6961 1.35857 23.1589 1.00081 23.5856 0.606819C23.5632 0.498132 23.5003 0.403031 23.4059 0.33963C22.5074 1.0778 21.5416 1.72992 20.661 2.47261" fill="#51AC34"/>
  <path d="M24.7806 0.357758C23.635 1.2182 22.3187 2.01976 21.1461 2.80774C20.9844 2.91643 20.7553 3.04323 20.6969 3.2606C20.7643 3.2606 20.7508 3.35571 20.7867 3.39646C20.9709 3.42816 21.1776 3.26513 21.3168 3.17456C22.5613 2.33677 23.7563 1.45368 24.9962 0.67929C24.9648 0.54796 24.8884 0.439273 24.7761 0.366815" fill="#51AC34"/>
  <path d="M29.3001 0.357758C27.8805 1.60766 26.3665 2.90284 24.8705 4.18897C23.6126 5.27131 22.2648 6.34007 21.0564 7.39524C20.9395 7.49487 20.6071 7.67148 20.7464 7.92961C20.971 8.09717 21.1597 7.76205 21.281 7.66242C23.3116 5.93249 25.3242 4.16633 27.3503 2.49074C28.1096 1.89749 28.8329 1.25895 29.5202 0.57966C29.4034 0.54796 29.4259 0.375872 29.3001 0.357758Z" fill="#51AC34"/>
  <path d="M25.7555 0.398558C24.9513 1.10049 23.9899 1.72544 23.0959 2.40474C22.4445 2.89836 21.8156 3.36933 21.1911 3.83125C21.0294 3.95353 20.6341 4.10297 20.7419 4.41092C21.0024 4.52413 21.2405 4.22524 21.4068 4.09844C22.7545 3.11573 24.1023 2.08321 25.3961 1.11408C25.6162 0.95105 25.9487 0.837834 26.0161 0.534416C25.9127 0.507244 25.9442 0.339685 25.751 0.398558" fill="#51AC34"/>
  <path d="M26.8202 0.398499C25.2838 1.75709 23.6755 3.07944 22.166 4.36557C21.6314 4.78221 21.1282 5.23507 20.661 5.72416C20.953 6.06833 21.2585 5.57924 21.4562 5.41168C22.8399 4.26594 24.2011 3.14737 25.5354 2.0288C26.088 1.57594 26.6181 1.08232 27.0808 0.602287C26.9595 0.602287 27.0179 0.366798 26.8202 0.421142" fill="#51AC34"/>
  <path d="M30.3198 0.398533C27.3234 3.03419 24.1741 5.75136 21.1911 8.33268C21.0069 8.48665 20.679 8.6995 20.7014 8.90781C20.9395 9.15236 21.236 8.80366 21.3663 8.68591C23.6126 6.65709 25.9082 4.71431 28.1455 2.76247C28.9766 2.03789 29.8302 1.33596 30.5849 0.579678C30.4636 0.552506 30.4726 0.394004 30.3198 0.398533Z" fill="#51AC34"/>
  <path d="M31.3801 0.398492C29.5831 1.96992 27.8446 3.51418 25.8903 5.2577C24.3988 6.58006 22.6422 8.05639 21.1912 9.33346C21.0429 9.46932 20.5622 9.8135 20.7419 10.0037C20.9216 10.1939 21.308 9.6867 21.4068 9.60518C21.7123 9.33799 21.9818 9.15232 22.1166 9.02552C24.4527 6.96499 26.663 4.94976 28.9407 2.96622C29.7359 2.27787 30.6254 1.58046 31.3307 0.873997C31.4116 0.792482 31.6587 0.692852 31.5554 0.516236C31.47 0.516236 31.5194 0.344148 31.3757 0.380377" fill="#51AC34"/>
  <path d="M32.7997 0.398499C30.8006 2.09673 28.8328 3.81308 26.5956 5.75133C25.0097 7.10992 23.3206 8.61342 21.6808 10.0716C21.4517 10.2754 20.5083 10.8551 20.7464 11.0951C20.9171 11.2672 20.962 11.0951 21.1462 10.9592C24.857 7.74392 28.6172 4.45614 32.2696 1.25441C32.5122 1.03703 32.8941 0.901176 32.9794 0.538886C32.8851 0.538886 32.8896 0.421142 32.7997 0.403027" fill="#51AC34"/>
  <path d="M21.3214 11.4076C21.1238 11.5797 20.4948 11.9465 20.7913 12.1639C20.9216 12.2499 20.989 12.1639 21.1912 11.9827C21.3933 11.8016 21.5056 11.6521 21.591 11.5842C23.6171 9.79539 25.5624 8.13339 27.5256 6.41251C29.4888 4.69163 31.4565 2.88924 33.3658 1.20006C33.5949 1.00081 34.2194 0.747202 33.8959 0.398499H33.8106C29.7718 3.93988 25.4096 7.80733 21.3214 11.4076Z" fill="#51AC34"/>
  <path d="M34.8843 0.398499C33.6624 1.50801 32.4045 2.60394 31.16 3.74515C27.7817 6.83367 24.3629 9.94936 21.016 13.0968C20.8812 13.219 20.5667 13.3504 20.7464 13.5496C20.9261 13.7489 21.0924 13.4953 21.2361 13.373C21.7123 12.9564 22.2604 12.3993 22.5839 12.1231C24.4527 10.4294 26.1779 8.83532 27.9749 7.18237C30.2211 5.10374 32.5078 3.00698 34.7136 0.991748C34.8349 0.878533 35.1 0.769846 35.0685 0.538886C34.9787 0.538886 34.9832 0.421142 34.8933 0.403027" fill="#51AC34"/>
  <path d="M33.86 2.26885C29.7494 6.07742 25.6297 9.88146 21.5011 13.6764C21.3214 13.8395 20.5218 14.3829 20.7464 14.6093C20.971 14.8358 21.1013 14.4644 21.2361 14.3422C21.7572 13.8621 22.3502 13.3323 22.6961 12.9836C25.9846 9.92222 29.1474 7.0239 32.3999 4.03048C33.5096 3.01154 34.745 1.95185 35.8097 0.910262C35.9355 0.792518 36.259 0.615902 35.9894 0.375885H35.8996L33.86 2.24621" fill="#51AC34"/>
  <path d="M35.1044 2.35939C34.3946 2.98434 33.7117 3.63646 33.0468 4.275C29.1024 7.93413 25.0412 11.4846 21.0788 15.1437C20.9126 15.2977 20.6296 15.506 20.7688 15.6735C20.9081 15.8411 21.2181 15.4698 21.3034 15.4064C26.6181 10.5607 31.8338 5.88719 37.0901 1.06873C37.3776 0.810603 37.71 0.520771 37.3147 0.398499C36.5779 1.02798 35.8456 1.69821 35.0999 2.35939" fill="#51AC34"/>
  <path d="M40.4639 2.18278C40.1854 2.33676 39.9338 2.53149 39.7137 2.76245C33.4961 8.22396 27.3459 13.7625 21.1911 19.2874C20.962 19.4912 20.5936 19.6451 20.7419 19.8671C20.8317 19.9984 20.8407 20.0074 21.0519 19.8671C21.1597 19.7855 21.263 19.695 21.3619 19.5953C27.6918 13.8304 34.17 8.22849 40.4639 2.5813C40.5358 2.44997 40.7874 2.41827 40.5987 2.2643C40.5358 2.2643 40.5223 2.19184 40.4639 2.17825" fill="#51AC34"/>
  <path d="M35.5447 7.753C30.9578 11.788 26.1913 15.7777 21.6808 19.8218C21.6 19.8897 21.3304 19.9848 21.5011 20.0437C22.1121 20.1026 22.4895 19.5319 22.8758 19.1968C24.0843 18.1552 25.2883 17.159 26.4698 16.1264C31.0881 12.0507 35.9041 8.08812 40.428 4.00783C40.4999 3.94896 40.6886 3.88103 40.6527 3.74517C40.5493 3.70894 40.5358 3.5912 40.428 3.56403C38.8512 4.98148 37.18 6.32196 35.5537 7.753" fill="#51AC34"/>
  <path d="M40.1091 5.34372C38.7074 6.43965 37.162 7.80276 35.7244 9.0436C31.461 12.7118 27.1258 16.2894 22.9208 19.9576C22.8534 19.9576 22.7725 20.0753 22.9208 20.0436C23.4913 20.1387 23.8193 19.5908 24.1607 19.2873C29.4259 14.8946 34.6327 10.3343 39.844 5.96867C39.9833 5.85093 40.3202 5.69242 40.2394 5.43429C40.181 5.43429 40.1675 5.36183 40.1091 5.34372Z" fill="#51AC34"/>
  <path d="M40.4639 6.41256C40.4639 6.32199 40.3381 6.41256 40.3336 6.45785C35.0999 10.7329 29.7718 15.1347 24.556 19.378C24.4347 19.4776 24.1067 19.6135 24.2056 19.8671C24.4077 20.1116 24.574 19.7811 24.6908 19.6905C25.9217 18.6942 27.1302 17.7251 28.3252 16.7514C32.2696 13.518 36.2185 10.194 40.1539 7.03751C40.3247 6.90165 40.5717 6.77938 40.6436 6.54842C40.5493 6.54842 40.5538 6.42615 40.4639 6.41256Z" fill="#51AC34"/>
  <path d="M38.029 9.40144C34.9202 11.9556 31.7395 14.5188 28.6352 17.0141C27.4492 17.9651 26.1823 18.9025 25.0906 19.8671C25.0906 19.8671 24.8481 19.9577 25.0008 20.0437C25.495 20.1614 25.796 19.7222 26.1104 19.464C26.4249 19.2059 26.7798 18.9568 27.0808 18.7078C31.2184 15.3475 35.4054 11.9646 39.534 8.64063C39.7901 8.43685 40.464 8.18777 40.154 7.79831H40.0641C39.4262 8.35986 38.7164 8.84442 38.029 9.40144Z" fill="#51AC34"/>
  <path d="M40.109 8.86255C37.8223 10.5563 35.3335 12.6258 32.921 14.5233C31.7395 15.4562 30.54 16.3665 29.3764 17.2813C28.2129 18.196 27.0987 19.0338 26.0969 19.9124C26.0969 19.9124 25.8903 19.9667 26.0071 20.0437C26.4563 20.1569 26.7708 19.7901 27.0673 19.5546C31.1869 16.285 35.338 12.97 39.4306 9.75469C39.7182 9.52826 40.109 9.3607 40.2752 8.99841C40.1854 8.99841 40.1899 8.87613 40.0955 8.86255" fill="#51AC34"/>
  <path d="M40.4639 9.93129C39.8485 10.3253 39.2555 10.76 38.6939 11.2265C38.1503 11.6341 37.5843 12.0507 37.0541 12.4718C33.9768 14.9173 30.7646 17.3265 27.7053 19.7176C27.5929 19.8082 27.3054 19.9486 27.4402 20.0301C27.8894 20.1569 28.141 19.7992 28.4151 19.5773L37.4495 12.5896C38.3974 11.856 39.4576 11.1495 40.3337 10.4023C40.4235 10.3298 40.6841 10.194 40.5987 10.0038C40.5358 10.0038 40.5223 9.93129 40.4639 9.91318" fill="#51AC34"/>
  <path d="M40.464 11.6702C36.6094 14.3557 32.5976 17.2585 28.7251 20.0436H29.3001C32.1259 17.965 35.055 15.9679 37.8359 13.9436L39.2555 12.9156C39.7452 12.6031 40.2079 12.2454 40.6302 11.8468C40.5179 11.8468 40.5628 11.6748 40.4505 11.6702" fill="#51AC34"/>
  <path d="M40.109 12.739C40.109 12.7118 40.109 12.6847 40.0641 12.6937C36.816 15.1301 33.5409 17.5348 30.23 19.9124C30.23 19.9758 30.0413 20.0482 30.23 20.0437H30.6792C33.487 18.0058 36.3353 15.8728 39.0937 13.8485C39.5294 13.5859 39.9293 13.2734 40.2932 12.9156C40.2168 12.8794 40.2213 12.7571 40.1135 12.739" fill="#51AC34"/>
  <path d="M40.109 14.1203C37.3461 16.0766 34.5877 18.0466 31.8698 20.0437H32.4448C34.408 18.6217 36.4117 17.1726 38.339 15.7687C39.0398 15.3475 39.6912 14.8539 40.2887 14.2969C40.1719 14.2969 40.2258 14.1248 40.109 14.1203Z" fill="#51AC34"/>
  <path d="M40.0641 15.189C39.0938 16.0041 37.9706 16.8012 36.9194 17.639C36.0209 18.3409 35.0909 19.0564 34.2643 19.7312C34.179 19.8036 33.8915 20.0165 34.0397 20.0437H34.489C35.9445 18.8662 37.454 17.716 38.8781 16.5702C39.3948 16.2215 39.871 15.8185 40.2978 15.3656C40.172 15.3656 40.2393 15.1573 40.0731 15.189" fill="#51AC34"/>
  <path d="M40.0191 16.6201C38.8197 17.7115 37.4809 18.667 36.2994 19.7901C36.3982 19.8263 36.4072 19.9441 36.4746 20.012C37.126 19.4912 37.7864 18.9885 38.4243 18.4541C39.0757 17.9379 39.6957 17.3899 40.2887 16.8057C40.2213 16.7242 40.1854 16.6065 40.0191 16.6291" fill="#51AC34"/>
  <path d="M40.0192 17.3265C39.3184 18.119 38.3839 18.9794 37.6741 19.7312C37.5887 19.8218 37.3551 20.0029 37.4989 20.0437H37.8493C38.6984 19.2194 39.5026 18.35 40.3337 17.5031C40.2034 17.4714 40.2169 17.2948 40.0192 17.3265Z" fill="#51AC34"/>
  <path d="M40.0192 18.7077C39.6238 19.0746 39.197 19.4052 38.7388 19.6905C38.7658 19.8173 38.8466 19.9305 38.9589 19.9984C39.4082 19.6542 39.8574 19.3146 40.3067 18.9749C40.2528 18.8527 40.2348 18.6896 40.0371 18.7077" fill="#51AC34"/>
  <path d="M28.2353 0H28.3252C28.6666 0.366818 28.2039 0.516263 27.8759 0.801566C25.7779 2.64924 23.7608 4.42446 21.6763 6.23591C21.4921 6.39442 20.8587 7.14164 20.6969 6.81558C20.6071 6.62085 21.3528 6.04571 21.4966 5.90985C23.7788 3.93084 26.061 1.96995 28.2353 0.0226431V0Z" fill="#51AC34"/>
  <path d="M21.5011 0.67028C21.2855 0.788024 21.0653 0.892183 20.8362 0.982755C20.7913 0.874068 20.6835 0.837839 20.7014 0.67028C21.0024 0.588765 21.4427 0.108731 21.5011 0.67028Z" fill="#51AC34"/>
  <path d="M22.5658 0.670233C21.9818 0.987236 21.4337 1.34047 20.8811 1.6937C20.7868 1.65747 20.7688 1.5352 20.7014 1.4718C21.1507 1.01894 21.847 0.778919 22.3457 0.357758C22.485 0.393987 22.5074 0.54796 22.5658 0.670233Z" fill="#51AC34"/>
  <path d="M23.4059 0.357745C23.5003 0.421145 23.5632 0.516246 23.5856 0.624933C23.1589 1.01439 22.6961 1.3631 22.2109 1.67557C21.7797 2.05145 21.3214 2.39563 20.8362 2.69904C20.7823 2.62206 20.7239 2.54507 20.661 2.47261C21.5595 1.72992 22.5164 1.0778 23.4059 0.33963" fill="#51AC34"/>
  <path d="M25.0008 0.670226C23.7608 1.44462 22.5658 2.3277 21.3214 3.1655C21.1821 3.25607 20.9755 3.4191 20.7913 3.3874C20.7554 3.34664 20.7913 3.2606 20.7014 3.25154C20.7554 3.04322 20.9845 2.91642 21.1507 2.79868C22.3232 2.0107 23.6395 1.20913 24.7851 0.348694C24.8974 0.421152 24.9738 0.529839 25.0053 0.661169" fill="#51AC34"/>
  <path d="M29.5202 0.57966C28.8328 1.25895 28.1095 1.89749 27.3503 2.49074C25.3287 4.16633 23.3071 5.93249 21.2809 7.66243C21.1596 7.76205 20.971 8.11529 20.7463 7.92961C20.5981 7.67148 20.9395 7.47675 21.0563 7.39524C22.2648 6.34007 23.6125 5.27131 24.8704 4.18897C26.3664 2.90284 27.8804 1.60766 29.3 0.357758C29.4258 0.357758 29.4034 0.54796 29.5202 0.57966Z" fill="#51AC34"/>
  <path d="M26.0205 0.534416C25.9531 0.837834 25.6207 0.95105 25.4006 1.11408C24.1022 2.08321 22.75 3.11573 21.4112 4.09844C21.245 4.22524 21.0069 4.52413 20.7463 4.41092C20.634 4.10297 21.0294 3.95806 21.1956 3.83125C21.8111 3.37839 22.449 2.89836 23.1004 2.40474C23.9989 1.72544 24.9558 1.10049 25.76 0.398558C25.9531 0.339685 25.9217 0.507244 26.025 0.534416" fill="#51AC34"/>
  <path d="M27.0808 0.57964C26.6316 1.05967 26.088 1.53065 25.5354 2.00616C24.1876 3.12925 22.8399 4.24329 21.4562 5.38904C21.2585 5.5566 20.953 6.04569 20.661 5.70151C21.1282 5.21242 21.6314 4.75956 22.166 4.34292C23.698 3.0568 25.2838 1.72538 26.8202 0.375852C27.0179 0.321508 26.9595 0.534354 27.0808 0.556997" fill="#51AC34"/>
  <path d="M30.5849 0.579643C29.8302 1.33592 28.9766 2.03786 28.1455 2.76244C25.9082 4.71428 23.6126 6.65705 21.3663 8.68588C21.2361 8.80815 20.9171 9.13874 20.7014 8.90778C20.7014 8.69946 21.0069 8.48662 21.1911 8.33264C24.1741 5.75133 27.3234 3.03416 30.3199 0.398499C30.4726 0.398499 30.4636 0.552472 30.5849 0.579643Z" fill="#51AC34"/>
  <path d="M31.5598 0.534345C31.6631 0.710961 31.4161 0.810591 31.3352 0.892106C30.6299 1.59857 29.7403 2.29145 28.9452 2.98433C26.6675 4.96787 24.4527 6.9831 22.1211 9.04363C21.9863 9.16137 21.7168 9.3561 21.4113 9.62329C21.3124 9.70933 20.962 10.2211 20.7464 10.0218C20.5307 9.82255 21.0429 9.48743 21.1956 9.35157C22.6467 8.05639 24.4033 6.58006 25.8948 5.27581C27.849 3.53229 29.5921 1.98803 31.3846 0.416601C31.5284 0.380372 31.4789 0.534345 31.5643 0.55246" fill="#51AC34"/>
  <path d="M32.9794 0.534376C32.8941 0.896665 32.5302 1.03252 32.2696 1.2499C28.6172 4.45163 24.857 7.73941 21.1462 10.9547C20.962 11.0906 20.9171 11.2627 20.7464 11.0906C20.5083 10.8506 21.4517 10.2709 21.6808 10.0671C23.3206 8.60891 25.0097 7.10993 26.5956 5.75135C28.8418 3.81763 30.7961 2.10128 32.7997 0.403046C32.8896 0.403046 32.8851 0.525318 32.9794 0.538904" fill="#51AC34"/>
  <path d="M33.8196 0.398499H33.9049C34.2284 0.751731 33.6039 1.00081 33.3748 1.20006C31.4565 2.88924 29.4753 4.71428 27.5346 6.41251C25.5938 8.11074 23.6126 9.79539 21.591 11.5842C21.5056 11.6521 21.3664 11.8378 21.1912 11.9827C21.016 12.1276 20.9216 12.2499 20.7913 12.1639C20.4948 11.942 21.1238 11.5797 21.3214 11.4076C25.4096 7.80733 29.7718 3.93988 33.8196 0.398499Z" fill="#51AC34"/>
  <path d="M35.0595 0.5344C35.0909 0.760831 34.8259 0.869518 34.7046 0.987262C32.5032 3.0025 30.2121 5.09925 27.9658 7.17789C26.1688 8.83084 24.4302 10.4249 22.5748 12.1186C22.2693 12.3949 21.7212 12.9519 21.2271 13.3685C21.0833 13.4908 20.8722 13.6765 20.7374 13.5451C20.6026 13.4138 20.8722 13.2236 21.0069 13.0923C24.3538 9.92223 27.7726 6.82919 31.151 3.74066C32.3954 2.59945 33.6533 1.50352 34.8753 0.394012C34.9651 0.394012 34.9606 0.516285 35.0505 0.529871" fill="#51AC34"/>
  <path d="M35.8995 0.398499H35.9893C36.2679 0.638516 35.9354 0.815132 35.8096 0.932876C34.7449 1.97446 33.496 3.03416 32.3998 4.0531C29.1473 7.04652 25.9846 9.94484 22.714 12.9971C22.3681 13.3232 21.7751 13.853 21.254 14.3557C21.1192 14.478 20.953 14.8086 20.7643 14.6229C20.5756 14.4372 21.3393 13.853 21.519 13.6855C25.6296 9.87691 29.7403 6.07286 33.8599 2.26882L35.8995 0.398499Z" fill="#51AC34"/>
  <path d="M37.3192 0.398499C37.7145 0.520771 37.3821 0.810603 37.0946 1.06873C31.8338 5.88719 26.6181 10.5788 21.281 15.4109C21.2136 15.4743 20.9261 15.8637 20.7464 15.6781C20.5667 15.4924 20.8901 15.3022 21.0563 15.1482C25.0187 11.4846 29.0799 7.93413 33.0244 4.27953C33.7117 3.64099 34.4035 2.98887 35.1044 2.36392C35.8052 1.73897 36.5824 1.03251 37.3192 0.403027" fill="#51AC34"/>
  <path d="M20.3061 16.9687V16.8827C26.3081 11.6386 32.2427 6.11364 38.2042 0.801563C38.4154 0.615889 38.6535 0.348701 38.8242 0.489088C39.0398 0.71099 38.5277 0.978179 38.4738 1.02347C37.0586 2.26884 35.7378 3.49609 34.4799 4.64636C32.9705 6.00495 31.3352 7.39977 29.8751 8.72212C27.0269 11.3306 24.2101 13.93 21.3394 16.4706C21.1597 16.6608 20.9665 16.8419 20.7598 17.005C20.5532 17.1272 20.4813 17.1499 20.3106 16.9597" fill="#51AC34"/>
  <path d="M20.3061 17.6842V17.5937C26.5956 12.0597 33.0154 6.37173 39.224 0.801525C39.3678 0.674723 39.6283 0.348662 39.8889 0.48905C39.9743 0.801525 39.6104 0.941912 39.4396 1.06871C38.8242 1.61668 38.2177 2.142 37.6426 2.67637C32.2517 7.49936 26.7888 12.3495 21.3394 17.168C20.9845 17.4804 20.6745 18.0737 20.3196 17.7023" fill="#51AC34"/>
  <path d="M20.3061 19.0655V19.0202C26.6809 13.2372 33.2579 7.29561 39.6238 1.51256C39.8035 1.35406 40.0461 0.941952 40.2438 1.20008C40.3067 1.48992 39.9652 1.68465 39.7945 1.82956C36.6498 4.61014 33.5859 7.38165 30.4906 10.2437C27.4806 13.0288 24.3403 15.8909 21.2315 18.6625C20.8407 19.0112 20.5352 19.5093 20.3016 19.0655" fill="#51AC34"/>
  <path d="M40.5986 2.26881C40.7873 2.42279 40.5358 2.45449 40.4639 2.58582C34.1699 8.22848 27.6917 13.8304 21.3663 19.5953C21.2674 19.695 21.1641 19.7855 21.0563 19.867C20.8451 20.0074 20.8362 19.9984 20.7463 19.867C20.5936 19.6451 20.9619 19.4912 21.1956 19.2874C27.3503 13.7625 33.505 8.22395 39.7181 2.76243C39.9383 2.53147 40.1898 2.33674 40.4684 2.18277C40.5268 2.18277 40.5402 2.26428 40.6031 2.26881" fill="#51AC34"/>
  <path d="M40.419 3.56403C40.5268 3.5912 40.5403 3.70894 40.6436 3.74517C40.6795 3.88103 40.4909 3.94896 40.419 4.00783C35.8816 8.08359 31.0791 12.0507 26.4608 16.1264C25.2882 17.159 24.0843 18.1552 22.8668 19.1968C22.4804 19.5319 22.1031 20.1026 21.4921 20.0437C21.3214 19.9848 21.5909 19.8897 21.6718 19.8218C26.1643 15.7777 30.9488 11.788 35.5356 7.753C37.1619 6.32196 38.8376 4.98148 40.41 3.56403" fill="#51AC34"/>
  <path d="M40.2348 5.43429C40.3156 5.69242 39.9787 5.85093 39.8394 5.96867C34.6281 10.3343 29.4213 14.8946 24.1561 19.2873C23.7967 19.5862 23.4868 20.1387 22.9162 20.0436C22.768 20.0753 22.8488 19.9576 22.9162 19.9576C27.1212 16.2849 31.4519 12.7118 35.7198 9.0436C37.1574 7.80276 38.7028 6.43965 40.1045 5.34372C40.1629 5.34372 40.1764 5.42523 40.2348 5.43429Z" fill="#51AC34"/>
  <path d="M40.6436 6.54836C40.5718 6.77932 40.3247 6.90159 40.154 7.03745C36.2185 10.2075 32.2696 13.5179 28.3252 16.7513C27.1302 17.725 25.9172 18.6941 24.6908 19.6904C24.574 19.781 24.4078 20.1116 24.2056 19.867C24.1157 19.6134 24.4347 19.4776 24.556 19.3779C29.7718 15.1346 35.0999 10.7192 40.3337 6.45779C40.3337 6.42156 40.4774 6.32193 40.4639 6.4125C40.5538 6.4125 40.5493 6.53477 40.6436 6.54836Z" fill="#51AC34"/>
  <path d="M40.0641 7.79831H40.154C40.464 8.16513 39.7901 8.43685 39.534 8.64063C35.4054 11.9646 31.2184 15.3475 27.0808 18.7078C26.7798 18.9568 26.4294 19.2059 26.1104 19.464C25.7915 19.7222 25.495 20.1614 25.0008 20.0437C24.848 19.9577 25.0951 19.8626 25.0906 19.8671C26.1823 18.9025 27.4492 17.9651 28.6352 17.0141C31.744 14.5188 34.9247 11.9556 38.029 9.40144C38.7074 8.84442 39.4262 8.35986 40.0641 7.79831Z" fill="#51AC34"/>
  <path d="M40.2887 8.99841C40.1225 9.3607 39.7317 9.52826 39.4441 9.75469C35.3515 12.97 31.2004 16.285 27.0808 19.5546C26.7843 19.7901 26.4833 20.1569 26.0206 20.0437C25.9037 19.9667 26.1014 19.9169 26.1104 19.9124C27.1122 19.0338 28.2848 18.1508 29.3899 17.2813C30.4951 16.4118 31.753 15.4698 32.9345 14.5233C35.3335 12.6258 37.8223 10.5563 40.1225 8.86255C40.2168 8.86255 40.2123 8.98482 40.3022 8.99841" fill="#51AC34"/>
  <path d="M40.5987 10.0219C40.6841 10.2121 40.4235 10.3479 40.3337 10.4204C39.4352 11.1676 38.3974 11.8741 37.4495 12.6032C34.453 14.9218 31.443 17.2541 28.4151 19.5954C28.141 19.8127 27.876 20.1705 27.4402 20.0482C27.3054 19.9667 27.5929 19.8263 27.7053 19.7358C30.7422 17.3311 33.9947 14.9218 37.0541 12.49C37.5843 12.0688 38.1503 11.6522 38.6939 11.2446C39.2555 10.7781 39.8485 10.3434 40.4639 9.9494C40.5223 9.9494 40.5358 10.0309 40.5987 10.04" fill="#51AC34"/>
  <path d="M40.6437 11.8468C40.2169 12.2454 39.7587 12.6031 39.269 12.9156L37.8493 13.9436C35.055 15.9724 32.1259 17.965 29.3136 20.0436H28.7251C32.5976 17.2585 36.6094 14.3557 40.464 11.6702C40.5763 11.6702 40.5314 11.8468 40.6437 11.8468Z" fill="#51AC34"/>
  <path d="M40.2887 12.9157C39.9248 13.2734 39.525 13.5859 39.0892 13.8486C36.3308 15.8728 33.4826 18.0058 30.6748 20.0437H30.2255C30.0368 20.0437 30.2255 19.9758 30.2255 19.9124C33.541 17.5394 36.8205 15.1347 40.0596 12.6938C40.0955 12.6938 40.1045 12.6938 40.1045 12.739C40.2123 12.739 40.2078 12.8794 40.2842 12.9157" fill="#51AC34"/>
  <path d="M40.2887 14.2969C39.6912 14.8539 39.0398 15.3475 38.339 15.7687C36.4117 17.1726 34.408 18.6217 32.4448 20.0437H31.8698C34.5877 18.0466 37.3461 16.0766 40.109 14.1203C40.2258 14.1203 40.1719 14.2924 40.2887 14.2969Z" fill="#51AC34"/>
  <path d="M40.2887 15.3656C39.8619 15.8184 39.3857 16.2215 38.8691 16.5702C37.445 17.7159 35.9355 18.8662 34.4799 20.0436H34.0307C33.8824 20.0165 34.1699 19.8036 34.2553 19.7312C35.0819 19.0564 36.0253 18.3454 36.9103 17.6389C37.9616 16.8011 39.0802 16.0041 40.0551 15.189C40.2213 15.1573 40.1539 15.361 40.2797 15.3656" fill="#51AC34"/>
  <path d="M40.2887 16.7921C39.7002 17.3718 39.0847 17.9198 38.4378 18.4315C37.7999 18.9659 37.1395 19.4686 36.4881 19.9893C36.4207 19.9214 36.4117 19.8037 36.3129 19.7674C37.4944 18.6534 38.8332 17.6979 40.0327 16.5974C40.1989 16.5974 40.2348 16.6925 40.3022 16.774" fill="#51AC34"/>
  <path d="M40.3337 17.5257C39.5026 18.3726 38.6984 19.2421 37.8493 20.0663H37.4989C37.3551 20.0255 37.5887 19.8444 37.6741 19.7538C38.3839 19.0021 39.3184 18.1416 40.0192 17.3491C40.2169 17.3174 40.2034 17.494 40.3337 17.5257Z" fill="#51AC34"/>
  <path d="M40.2887 18.9749C39.8395 19.3146 39.3902 19.6542 38.941 19.9984C38.8287 19.9305 38.7523 19.8172 38.7208 19.6904C39.1791 19.4051 39.6059 19.0746 40.0012 18.7077C40.1989 18.7077 40.2168 18.8526 40.2708 18.9749" fill="#51AC34"/>
  <path d="M41.0075 0.67028C41.0075 0.837839 41.0973 0.874068 41.1422 0.982755C41.3714 0.892183 41.5915 0.788024 41.8071 0.67028C41.7442 0.108731 41.3085 0.588765 41.0075 0.67028Z" fill="#3374B0"/>
  <path d="M42.6517 0.357758C42.153 0.778919 41.4522 0.996293 41.0075 1.4718C41.0748 1.5352 41.0928 1.65747 41.1872 1.6937C41.7397 1.34047 42.2878 0.987236 42.8718 0.670233C42.8134 0.54796 42.791 0.393987 42.6517 0.357758Z" fill="#3374B0"/>
  <path d="M40.9671 2.49073C41.03 2.56318 41.0884 2.64017 41.1423 2.71716C41.6275 2.40921 42.0858 2.06051 42.517 1.67557C43.0022 1.35857 43.465 1.00081 43.8917 0.606819C43.8693 0.498132 43.8064 0.398502 43.712 0.33963C42.8135 1.0778 41.8477 1.72992 40.9671 2.47261" fill="#3374B0"/>
  <path d="M45.0867 0.357758C43.9366 1.2182 42.6248 2.01976 41.4522 2.80774C41.2905 2.91643 41.0614 3.04323 41.003 3.2606C41.0704 3.2606 41.0569 3.35571 41.0928 3.39646C41.277 3.42816 41.4837 3.26513 41.6275 3.17456C42.8674 2.33677 44.0669 1.45368 45.3023 0.67929C45.2754 0.54796 45.1945 0.434744 45.0822 0.366815" fill="#3374B0"/>
  <path d="M49.6061 0.357758C48.191 1.60766 46.6725 2.90284 45.1765 4.18897C43.9051 5.27131 42.5888 6.34007 41.3669 7.39524C41.2456 7.49487 40.9176 7.67148 41.0524 7.92961C41.2815 8.09717 41.4702 7.76205 41.587 7.66242C43.6176 5.93249 45.6303 4.16633 47.6564 2.49074C48.4156 1.89749 49.1389 1.25895 49.8263 0.57966C49.7094 0.54796 49.7319 0.375872 49.6061 0.357758Z" fill="#3374B0"/>
  <path d="M46.0751 0.398558C45.2709 1.10049 44.314 1.72544 43.4155 2.40474C42.7686 2.89836 42.1262 3.36933 41.5107 3.83125C41.349 3.95353 40.9536 4.10297 41.0615 4.41092C41.322 4.52413 41.5601 4.22524 41.7263 4.09844C43.0741 3.11573 44.4218 2.08321 45.7157 1.11408C45.9358 0.95105 46.2727 0.837834 46.3356 0.534416C46.2323 0.507244 46.2638 0.339685 46.0706 0.398558" fill="#3374B0"/>
  <path d="M47.1219 0.398499C45.5899 1.75709 44.0086 3.07944 42.4721 4.36557C41.9375 4.78221 41.4344 5.23507 40.9671 5.72416C41.2591 6.06833 41.5646 5.57924 41.7668 5.41168C43.146 4.26594 44.5072 3.14737 45.8415 2.0288C46.3941 1.57594 46.9287 1.08232 47.3914 0.602287C47.2656 0.602287 47.3285 0.366798 47.1219 0.421142" fill="#3374B0"/>
  <path d="M50.626 0.398533C47.625 3.03419 44.4802 5.75136 41.4972 8.33268C41.313 8.48665 40.9851 8.6995 41.0075 8.90781C41.2501 9.15236 41.5421 8.80366 41.6724 8.68591C43.9187 6.6752 46.2188 4.71431 48.4516 2.76247C49.2872 2.03789 50.1363 1.33596 50.891 0.579678C50.7697 0.552506 50.7832 0.394004 50.626 0.398533Z" fill="#3374B0"/>
  <path d="M51.6862 0.398492C49.8892 1.96992 48.1506 3.51418 46.1963 5.2577C44.7048 6.58006 42.9483 8.05639 41.4972 9.33346C41.3489 9.46932 40.8682 9.8135 41.0479 10.0037C41.2276 10.1939 41.6185 9.6867 41.7128 9.60518C42.0183 9.33799 42.2879 9.15232 42.4271 9.02552C44.7542 6.96499 46.969 4.94976 49.2467 2.96622C50.0419 2.27787 50.9314 1.58046 51.6367 0.873997C51.7221 0.792482 51.9647 0.692852 51.8614 0.516236C51.776 0.516236 51.8254 0.344148 51.6817 0.380377" fill="#3374B0"/>
  <path d="M53.1058 0.398499C51.1021 2.09673 49.1389 3.81308 46.9061 5.7468C45.3203 7.10539 43.6266 8.60889 41.9869 10.0671C41.7577 10.2709 40.8143 10.8506 41.0524 11.0906C41.2231 11.2627 41.2681 11.0906 41.4522 10.9547C45.163 7.7394 48.9233 4.45162 52.5757 1.24988C52.8183 1.03251 53.2001 0.896647 53.2855 0.534357C53.1911 0.534357 53.1956 0.416613 53.1058 0.398499Z" fill="#3374B0"/>
  <path d="M41.6319 11.4076C41.4298 11.5797 40.8008 11.9465 41.0973 12.1639C41.2231 12.2499 41.295 12.1639 41.4972 11.9827C41.6993 11.8016 41.8161 11.6521 41.897 11.5842C43.9231 9.79539 45.8684 8.13339 47.8316 6.41251C49.7948 4.69163 51.7625 2.88924 53.6718 1.20006C53.901 1.00081 54.5254 0.747202 54.202 0.398499H54.1166C50.0733 3.92177 45.7201 7.80733 41.623 11.4076" fill="#3374B0"/>
  <path d="M55.1903 0.398499C53.9729 1.50801 52.7105 2.60394 51.4661 3.74515C48.0877 6.83367 44.6689 9.94936 41.322 13.0968C41.1872 13.219 40.8727 13.3504 41.0524 13.5496C41.2321 13.7489 41.4029 13.4953 41.5421 13.373C42.0183 12.9564 42.5709 12.3993 42.8899 12.1231C44.7588 10.4294 46.4839 8.83532 48.2809 7.18237C50.5271 5.10374 52.8138 3.00698 55.0196 0.991748C55.1409 0.878533 55.4105 0.769846 55.3745 0.538886C55.2847 0.538886 55.2892 0.421142 55.1993 0.403027" fill="#3374B0"/>
  <path d="M54.1616 2.26885C50.0555 6.07742 45.9358 9.88146 41.8072 13.6764C41.6275 13.8395 40.8279 14.3829 41.0525 14.6093C41.2771 14.8358 41.4074 14.4644 41.5422 14.3422C42.0633 13.8621 42.6518 13.3323 43.0022 12.9836C46.2952 9.92222 49.4535 7.0239 52.7105 4.03048C53.8202 3.01154 55.0511 1.95185 56.1203 0.910262C56.2461 0.792518 56.5696 0.615902 56.2955 0.375885H56.2102L54.1616 2.26885Z" fill="#3374B0"/>
  <path d="M55.4105 2.35943C54.7096 2.98438 54.0178 3.63651 53.3305 4.27504C49.386 7.93417 45.3248 11.4846 41.3669 15.1437C41.1917 15.2977 40.8907 15.506 41.0525 15.6736C41.2142 15.8411 41.5017 15.4698 41.5871 15.4064C46.9286 10.5562 52.1399 5.89629 57.4007 1.06425C57.6882 0.806117 58.0206 0.516285 57.6253 0.394012C56.8885 1.02349 56.1562 1.69373 55.4105 2.35491" fill="#3374B0"/>
  <path d="M60.77 2.18277C60.487 2.33674 60.2309 2.53147 60.0018 2.76243C53.7932 8.22395 47.6384 13.7625 41.4837 19.2874C41.2591 19.4912 40.8907 19.6451 41.0345 19.867C41.1243 19.9984 41.1333 20.0074 41.3489 19.867C41.4568 19.781 41.5601 19.6904 41.6544 19.5953C47.9799 13.8304 54.458 8.22848 60.752 2.58582C60.8239 2.45449 61.08 2.42279 60.8868 2.26881C60.8239 2.26881 60.8149 2.19636 60.752 2.18277" fill="#3374B0"/>
  <path d="M55.8552 7.753C51.2639 11.788 46.4974 15.7777 41.9869 19.8218C41.906 19.8897 41.6365 19.9848 41.8072 20.0437C42.4182 20.1026 42.7955 19.5319 43.1819 19.1968C44.3949 18.1552 45.5989 17.159 46.7759 16.1264C51.3942 12.0507 56.2101 8.08812 60.7386 4.00783C60.806 3.94896 60.9947 3.88103 60.9587 3.74517C60.8554 3.70894 60.8419 3.5912 60.7386 3.56403C59.1617 4.98148 57.486 6.32196 55.8642 7.753" fill="#3374B0"/>
  <path d="M60.4196 5.34372C59.0089 6.43965 57.468 7.80276 56.0304 9.0436C51.7715 12.7118 47.4318 16.2894 43.2268 19.9576C43.1594 19.9576 43.0785 20.0753 43.2268 20.0436C43.7928 20.1387 44.1253 19.5908 44.4667 19.2873C49.7319 14.8946 54.9387 10.3343 60.15 5.96867C60.2893 5.85093 60.6262 5.69242 60.5498 5.43429C60.487 5.43429 60.4735 5.36183 60.4196 5.34372Z" fill="#3374B0"/>
  <path d="M60.77 6.41256C60.77 6.32199 60.6442 6.41256 60.6397 6.45785C55.406 10.7193 50.0779 15.1347 44.8666 19.378C44.7408 19.4776 44.4173 19.6135 44.5117 19.8671C44.7183 20.1116 44.8801 19.7811 45.0014 19.6905C46.2278 18.6942 47.4408 17.7251 48.6313 16.7514C52.5802 13.518 56.5291 10.194 60.46 7.03751C60.6308 6.90165 60.8778 6.77938 60.9497 6.54842C60.8599 6.54842 60.8644 6.42615 60.77 6.41256Z" fill="#3374B0"/>
  <path d="M58.335 9.40144C55.2262 11.9556 52.0455 14.5188 48.9412 17.0141C47.7552 17.9651 46.4883 18.9025 45.3966 19.8671C45.3966 19.8671 45.1541 19.9577 45.3068 20.0437C45.801 20.1614 46.102 19.7222 46.4164 19.464C46.7309 19.2059 47.0858 18.9568 47.3913 18.7078C51.5244 15.3475 55.7159 11.9646 59.84 8.64063C60.0961 8.43685 60.77 8.18777 60.46 7.79831H60.3746C59.7277 8.35986 59.0269 8.84442 58.335 9.40144Z" fill="#3374B0"/>
  <path d="M60.4196 8.86255C58.1284 10.5563 55.6396 12.6258 53.2316 14.5233C52.0501 15.4562 50.8506 16.3665 49.687 17.2813C48.5234 18.196 47.4093 19.0338 46.4075 19.9124C46.4075 19.9124 46.2053 19.9667 46.3176 20.0437C46.7669 20.1569 47.0814 19.7901 47.3824 19.5546C51.4975 16.285 55.6485 12.97 59.7457 9.75469C60.0332 9.52826 60.4241 9.3607 60.5858 8.99841C60.4959 8.99841 60.4959 8.87613 60.4106 8.86255" fill="#3374B0"/>
  <path d="M60.77 9.9313C60.1546 10.3298 59.5661 10.76 59 11.2265C58.4564 11.6341 57.8859 12.0507 57.3602 12.4719C54.2829 14.9173 51.0707 17.3265 48.0114 19.7177C47.899 19.8082 47.6115 19.9486 47.7463 20.0301C48.1956 20.1569 48.4471 19.7992 48.7212 19.5773L57.7556 12.6077C58.699 11.8741 59.7592 11.1676 60.6353 10.4204C60.7251 10.3479 60.9857 10.2121 60.9003 10.0219C60.8374 10.0219 60.8284 9.94942 60.7656 9.9313" fill="#3374B0"/>
  <path d="M60.77 11.6702C56.9154 14.3421 52.9216 17.2585 49.0266 20.0436H49.6061C52.4319 17.965 55.361 15.9679 58.1419 13.9436L59.557 12.9156C60.0467 12.6031 60.5094 12.2454 60.9317 11.8468C60.8194 11.8468 60.8688 11.6748 60.752 11.6702" fill="#3374B0"/>
  <path d="M60.4196 12.739C60.4196 12.7118 60.4196 12.6847 60.3747 12.6937C57.1221 15.1301 53.8426 17.5348 50.5361 19.9124C50.5361 19.9758 50.3519 20.0482 50.5361 20.0437H50.9854C53.7977 18.0058 56.6504 15.8728 59.4088 13.8485C59.8401 13.5859 60.2444 13.2734 60.6038 12.9156C60.5274 12.8794 60.5319 12.7571 60.4286 12.739" fill="#3374B0"/>
  <path d="M60.4196 14.1203C57.6522 16.0766 54.9028 18.0511 52.1758 20.0437H52.7509C54.7141 18.6217 56.7178 17.1726 58.645 15.7687C59.3459 15.3475 59.9973 14.8539 60.5948 14.2969C60.478 14.2969 60.5319 14.1248 60.4196 14.1203Z" fill="#3374B0"/>
  <path d="M60.3747 15.189C59.3998 16.0041 58.2812 16.8012 57.2299 17.639C56.3314 18.3409 55.406 19.0564 54.5749 19.7312C54.4895 19.8036 54.2065 20.0165 54.3547 20.0437H54.804C56.255 18.8662 57.7645 17.716 59.1886 16.5702C59.7053 16.2215 60.1815 15.8185 60.6083 15.3656C60.4825 15.3656 60.5544 15.1573 60.3881 15.189" fill="#3374B0"/>
  <path d="M60.3253 16.6201C59.1258 17.7115 57.787 18.667 56.6055 19.7901C56.7043 19.8263 56.7178 19.9441 56.7807 20.012C57.4321 19.4912 58.0925 18.9885 58.7349 18.4541C59.3818 17.9379 60.0018 17.3854 60.5948 16.8057C60.5319 16.7242 60.496 16.6065 60.3253 16.6291" fill="#3374B0"/>
  <path d="M60.3253 17.3265C59.6245 18.119 58.69 18.9794 57.9802 19.7312C57.8948 19.8218 57.6612 20.0029 57.805 20.0437H58.1599C59.0045 19.2194 59.8086 18.35 60.6398 17.5031C60.5095 17.4714 60.523 17.2948 60.3253 17.3265Z" fill="#3374B0"/>
  <path d="M60.3252 18.7077C59.9299 19.0746 59.5031 19.4052 59.0449 19.6905C59.0718 19.8173 59.1527 19.9305 59.265 19.9984C59.7142 19.6542 60.1635 19.3146 60.6127 18.9749C60.5588 18.8527 60.5409 18.6896 60.3432 18.7077" fill="#3374B0"/>
  <path d="M48.5414 0H48.6313C48.9727 0.366818 48.5145 0.516263 48.182 0.801566C46.0796 2.64924 44.0624 4.42446 41.9779 6.23591C41.7982 6.39442 41.1603 7.14164 40.9985 6.81558C40.9087 6.62085 41.6544 6.04571 41.7982 5.90985C44.0804 3.93084 46.3626 1.96995 48.537 0.0226431V0L48.5414 0Z" fill="#3374B0"/>
  <path d="M41.8072 0.67028C41.5916 0.788024 41.3714 0.892183 41.1423 0.982755C41.0974 0.874068 40.9896 0.837839 41.0075 0.67028C41.3085 0.588765 41.7443 0.108731 41.8072 0.67028Z" fill="#3374B0"/>
  <path d="M42.8718 0.670233C42.2878 0.987236 41.7397 1.34047 41.1872 1.6937C41.0928 1.65747 41.0748 1.5352 41.0075 1.4718C41.4567 1.01894 42.153 0.778919 42.6517 0.357758C42.791 0.393987 42.8134 0.54796 42.8718 0.670233Z" fill="#3374B0"/>
  <path d="M43.712 0.357758C43.8064 0.41663 43.8693 0.516259 43.8917 0.624946C43.4649 1.01441 43.0022 1.36311 42.517 1.67559C42.0857 2.06052 41.623 2.40922 41.1333 2.71717C41.0794 2.64018 41.021 2.5632 40.9581 2.49074C41.8566 1.74804 42.8135 1.09592 43.703 0.357758" fill="#3374B0"/>
  <path d="M45.3068 0.670226C44.0713 1.44462 42.8718 2.3277 41.6319 3.1655C41.4882 3.25607 41.2815 3.4191 41.0973 3.3874C41.0614 3.34664 41.0973 3.2606 41.0075 3.25154C41.0614 3.04322 41.2905 2.91642 41.4567 2.79868C42.6293 2.0107 43.9456 1.20913 45.0911 0.348694C45.2035 0.421152 45.2798 0.529839 45.3113 0.661169" fill="#3374B0"/>
  <path d="M49.8263 0.57966C49.139 1.25895 48.4157 1.89749 47.6565 2.49074C45.6393 4.16633 43.6132 5.93249 41.5871 7.66243C41.4703 7.76205 41.2816 8.11529 41.0525 7.92961C40.9087 7.67148 41.2457 7.47675 41.3625 7.39524C42.5889 6.34007 43.9052 5.27131 45.1766 4.18897C46.6726 2.90284 48.1911 1.60766 49.6062 0.357758C49.732 0.357758 49.7095 0.54796 49.8263 0.57966Z" fill="#3374B0"/>
  <path d="M46.3267 0.534416C46.2638 0.837834 45.9268 0.95105 45.7067 1.11408C44.4084 2.08321 43.0561 3.11573 41.7174 4.09844C41.5511 4.22524 41.313 4.52413 41.0525 4.41092C40.9401 4.10297 41.3355 3.95806 41.5017 3.83125C42.1172 3.37839 42.7596 2.89836 43.4065 2.40474C44.305 1.72544 45.2619 1.10049 46.0661 0.398558C46.2593 0.339685 46.2278 0.507244 46.3311 0.534416" fill="#3374B0"/>
  <path d="M47.3914 0.57964C46.9421 1.05967 46.3941 1.53065 45.8415 2.00616C44.4937 3.12925 43.146 4.24329 41.7668 5.38904C41.5646 5.5566 41.2591 6.04569 40.9671 5.70151C41.4344 5.21242 41.9375 4.75956 42.4721 4.34292C44.0086 3.0568 45.5899 1.72538 47.1219 0.375852C47.3285 0.321508 47.2656 0.534354 47.3914 0.556997" fill="#3374B0"/>
  <path d="M50.891 0.579643C50.1362 1.33592 49.2871 2.03786 48.4515 2.76244C46.2053 4.71428 43.9276 6.67517 41.6724 8.68588C41.5421 8.80815 41.2501 9.13874 41.0075 8.90778C41.0075 8.69946 41.313 8.48662 41.4971 8.33264C44.4802 5.75133 47.6249 3.03416 50.6259 0.398499C50.7831 0.398499 50.7697 0.552472 50.891 0.579643Z" fill="#3374B0"/>
  <path d="M51.8659 0.534345C51.9692 0.710961 51.7266 0.810591 51.6413 0.892106C50.936 1.59857 50.0465 2.29145 49.2513 2.98433C46.9736 4.96787 44.7588 6.9831 42.4317 9.04363C42.2924 9.16137 42.0229 9.3561 41.7174 9.62329C41.623 9.70933 41.2681 10.2211 41.0525 10.0218C40.8368 9.82255 41.349 9.48743 41.5017 9.35157C42.9528 8.05639 44.7094 6.58006 46.2009 5.27581C48.1551 3.53229 49.8982 1.98803 51.6907 0.416601C51.8345 0.380372 51.7851 0.534345 51.8704 0.55246" fill="#3374B0"/>
  <path d="M53.2855 0.534357C53.2001 0.896647 52.8362 1.03251 52.5757 1.24988C48.9233 4.45162 45.163 7.7394 41.4522 10.9547C41.2681 11.0906 41.2231 11.2627 41.0524 11.0906C40.8143 10.8506 41.7577 10.2709 41.9869 10.0671C43.6266 8.60889 45.3203 7.11897 46.9061 5.7468C49.1524 3.81308 51.1021 2.09673 53.1058 0.398499C53.1956 0.398499 53.1911 0.520771 53.2855 0.534357Z" fill="#3374B0"/>
  <path d="M54.1256 0.398499H54.2109C54.5344 0.751731 53.9099 1.00081 53.6808 1.20006C51.7625 2.88924 49.7813 4.71428 47.8406 6.41251C45.8998 8.11074 43.9321 9.79539 41.906 11.5842C41.8251 11.6521 41.6813 11.8378 41.5061 11.9827C41.3309 12.1276 41.2321 12.2499 41.1063 12.1639C40.8098 11.942 41.4387 11.5797 41.6409 11.4076C45.7381 7.80733 50.0868 3.92177 54.1345 0.398499" fill="#3374B0"/>
  <path d="M55.3656 0.5344C55.4015 0.760831 55.132 0.869518 55.0107 0.987262C52.8093 3.0025 50.5182 5.09925 48.2719 7.17789C46.4749 8.83084 44.7363 10.4249 42.8809 12.1186C42.5799 12.3949 42.0273 12.9519 41.5332 13.3685C41.3939 13.4908 41.1783 13.6765 41.0435 13.5451C40.9087 13.4138 41.1783 13.2236 41.313 13.0923C44.66 9.92223 48.0787 6.82919 51.4571 3.74066C52.7015 2.59945 53.9639 1.50352 55.1814 0.394012C55.2712 0.394012 55.2667 0.516285 55.3566 0.529871" fill="#3374B0"/>
  <path d="M56.2101 0.398499H56.2955C56.574 0.638516 56.2461 0.815132 56.1203 0.932876C55.0511 1.97446 53.8201 3.03416 52.7105 4.0531C49.4534 7.04652 46.2952 9.94031 43.0022 13.0062C42.6563 13.3322 42.0632 13.8621 41.5421 14.3648C41.4073 14.487 41.2411 14.8176 41.0524 14.632C40.8637 14.4463 41.6275 13.8621 41.8072 13.6945C45.9268 9.88143 50.0464 6.07286 54.1615 2.26882L56.2056 0.398499" fill="#3374B0"/>
  <path d="M57.6253 0.398499C58.0207 0.520771 57.6882 0.810603 57.4007 1.06873C52.14 5.88719 46.9287 10.5788 41.5871 15.4109C41.5152 15.4743 41.2322 15.8637 41.0525 15.6781C40.8728 15.4924 41.1918 15.3022 41.3625 15.1482C45.3249 11.4846 49.3861 7.93413 53.3305 4.27953C54.0178 3.64099 54.7097 2.98887 55.4105 2.36392C56.1113 1.73897 56.8886 1.03251 57.6253 0.403027" fill="#3374B0"/>
  <path d="M40.6122 16.9687V16.8827C46.5917 11.6386 52.5488 6.11364 58.5103 0.801563C58.7215 0.615889 58.9596 0.348701 59.1303 0.489088C59.3504 0.71099 58.8338 0.978179 58.7754 1.02347C57.3647 2.26884 56.0439 3.49609 54.7905 4.64636C53.2766 6.00495 51.6458 7.39977 50.1812 8.72212C47.333 11.3306 44.5162 13.93 41.6455 16.4706C41.4658 16.6608 41.2681 16.8374 41.066 17.005C40.8593 17.1272 40.7874 17.1499 40.6167 16.9597" fill="#3374B0"/>
  <path d="M40.6122 17.6842V17.5937C46.9017 12.0597 53.326 6.37173 59.5301 0.801525C59.6739 0.674723 59.9344 0.348662 60.195 0.48905C60.2804 0.801525 59.9165 0.941912 59.7458 1.06871C59.1348 1.61668 58.5238 2.142 57.9488 2.67637C52.5578 7.49936 47.0949 12.3495 41.6455 17.168C41.2906 17.4804 40.9806 18.0737 40.6257 17.7023" fill="#3374B0"/>
  <path d="M40.6122 19.0655V19.0202C46.987 13.2372 53.5641 7.29561 59.9299 1.51256C60.1051 1.35406 60.3477 0.941952 60.5499 1.20008C60.6083 1.48992 60.2669 1.68465 60.1006 1.82956C56.9334 4.61014 53.892 7.38165 50.7922 10.2437C47.7822 13.0288 44.6465 15.8909 41.5332 18.6625C41.1423 19.0112 40.8413 19.5093 40.6032 19.0655" fill="#3374B0"/>
  <path d="M60.9003 2.26881C61.0935 2.42279 60.8374 2.45449 60.7656 2.58582C54.4761 8.22848 47.9934 13.8304 41.668 19.5953C41.5736 19.6904 41.4703 19.781 41.3625 19.867C41.1468 20.0074 41.1378 19.9984 41.048 19.867C40.8997 19.6451 41.2681 19.4912 41.4972 19.2874C47.652 13.7625 53.8067 8.22395 60.0153 2.76243C60.2399 2.536 60.4915 2.34127 60.7701 2.18277C60.8329 2.18277 60.8419 2.26428 60.9048 2.26881" fill="#3374B0"/>
  <path d="M60.7297 3.56403C60.833 3.5912 60.8465 3.70894 60.9498 3.74517C60.9857 3.88103 60.7971 3.94896 60.7297 4.00783C56.1877 8.08359 51.3853 12.0507 46.767 16.1264C45.5989 17.159 44.3949 18.1552 43.173 19.1968C42.7866 19.5319 42.4093 20.1026 41.7983 20.0437C41.6276 19.9848 41.8971 19.8897 41.978 19.8218C46.4705 15.7777 51.255 11.788 55.8463 7.753C57.4681 6.32196 59.1438 4.98148 60.7207 3.56403" fill="#3374B0"/>
  <path d="M60.5498 5.43429C60.6262 5.69242 60.2893 5.85093 60.15 5.96867C54.9387 10.3343 49.7319 14.8946 44.4667 19.2873C44.1073 19.5862 43.7928 20.1387 43.2268 20.0436C43.0785 20.0753 43.1594 19.9576 43.2268 19.9576C47.4318 16.2849 51.7625 12.7118 56.0304 9.0436C57.468 7.80276 59.0089 6.43965 60.4196 5.34372C60.4735 5.34372 60.487 5.42523 60.5498 5.43429Z" fill="#3374B0"/>
  <path d="M60.9496 6.54836C60.8778 6.77932 60.6307 6.90159 60.46 7.03745C56.529 10.2075 52.5801 13.5179 48.6312 16.7513C47.4407 17.725 46.2277 18.6941 45.0013 19.6904C44.88 19.781 44.7183 20.1116 44.5116 19.867C44.4218 19.6134 44.7407 19.4776 44.8665 19.3779C50.0778 15.1346 55.4059 10.7192 60.6397 6.45779C60.6397 6.42156 60.7834 6.32193 60.7699 6.4125C60.8643 6.4125 60.8598 6.53477 60.9496 6.54836Z" fill="#3374B0"/>
  <path d="M60.3747 7.79831H60.451C60.761 8.16513 60.0871 8.43685 59.8311 8.64063C55.707 11.9646 51.5155 15.3475 47.3824 18.7078C47.0769 18.9568 46.7265 19.2059 46.4075 19.464C46.0885 19.7222 45.792 20.1614 45.2979 20.0437C45.1451 19.9577 45.3877 19.8626 45.3877 19.8671C46.4794 18.9025 47.7463 17.9651 48.9323 17.0141C52.0456 14.5188 55.2218 11.9556 58.3261 9.40144C59 8.84442 59.7188 8.35986 60.3657 7.79831" fill="#3374B0"/>
  <path d="M60.5948 8.99841C60.4331 9.3607 60.0422 9.52826 59.7502 9.75469C55.6575 12.97 51.511 16.285 47.3913 19.5546C47.0903 19.7901 46.7893 20.1569 46.3266 20.0437C46.2143 19.9667 46.4075 19.9169 46.4165 19.9124C47.4183 19.0338 48.5908 18.1508 49.696 17.2813C50.8011 16.4118 52.059 15.4698 53.2406 14.5233C55.6396 12.6258 58.1284 10.5563 60.4286 8.86255C60.5139 8.86255 60.5139 8.98482 60.6038 8.99841" fill="#3374B0"/>
  <path d="M60.9004 10.0219C60.9857 10.2121 60.7251 10.3479 60.6353 10.4204C59.7593 11.1676 58.699 11.8741 57.7556 12.6032L48.7167 19.5954C48.4427 19.8127 48.1776 20.1705 47.7418 20.0482C47.6071 19.9667 47.8946 19.8263 48.0069 19.7358C51.0483 17.3311 54.2964 14.9218 57.3558 12.49C57.8814 12.0688 58.4519 11.6522 58.9955 11.2446C59.5616 10.7781 60.1501 10.3479 60.7656 9.9494C60.8285 9.9494 60.8375 10.0309 60.9004 10.04" fill="#3374B0"/>
  <path d="M60.9497 11.8468C60.5274 12.2454 60.0647 12.6031 59.575 12.9156L58.1599 13.9436C55.3611 15.9724 52.432 17.965 49.6241 20.0436H49.0446C52.9396 17.2585 56.9334 14.3421 60.788 11.6702C60.9048 11.6702 60.8554 11.8468 60.9677 11.8468" fill="#3374B0"/>
  <path d="M60.5948 12.9157C60.2354 13.2734 59.8311 13.5859 59.3998 13.8486C56.6414 15.8728 53.7887 18.0058 50.9764 20.0437H50.5271C50.3429 20.0437 50.5271 19.9758 50.5271 19.9124C53.8381 17.5394 57.1176 15.1347 60.3657 12.6938C60.4016 12.6938 60.4061 12.6938 60.4106 12.739C60.5139 12.739 60.5094 12.8794 60.5858 12.9157" fill="#3374B0"/>
  <path d="M60.5948 14.2969C59.9973 14.8539 59.3459 15.3475 58.645 15.7687C56.7178 17.1726 54.7141 18.6217 52.7509 20.0437H52.1758C54.8983 18.0466 57.6477 16.0721 60.4196 14.1203C60.5319 14.1203 60.478 14.2924 60.5948 14.2969Z" fill="#3374B0"/>
  <path d="M60.5948 15.3656C60.168 15.8184 59.6918 16.2215 59.1752 16.5702C57.751 17.7159 56.2416 18.8662 54.7905 20.0436H54.3412C54.193 20.0165 54.476 19.8036 54.5614 19.7312C55.3925 19.0564 56.3314 18.3454 57.2164 17.6389C58.2722 16.8011 59.3908 16.0041 60.3612 15.189C60.5274 15.1573 60.4555 15.361 60.5813 15.3656" fill="#3374B0"/>
  <path d="M60.5948 16.7922C60.0018 17.3718 59.3818 17.9243 58.7349 18.4406C58.097 18.9749 57.4321 19.4776 56.7807 19.9984C56.7178 19.9305 56.7043 19.8127 56.6055 19.7765C57.787 18.6625 59.1258 17.7069 60.3253 16.6065C60.496 16.6065 60.5319 16.7016 60.5948 16.7831" fill="#3374B0"/>
  <path d="M60.6398 17.5257C59.8086 18.3726 59.0045 19.2421 58.1599 20.0663H57.805C57.6612 20.0255 57.8948 19.8444 57.9802 19.7538C58.69 19.0021 59.6245 18.1416 60.3253 17.3491C60.523 17.3174 60.5095 17.494 60.6398 17.5257Z" fill="#3374B0"/>
  <path d="M60.5948 18.9749C60.1456 19.3146 59.6963 19.6542 59.2471 19.9984C59.1348 19.9305 59.0584 19.8172 59.0269 19.6904C59.4852 19.4051 59.912 19.0746 60.3073 18.7077C60.505 18.7077 60.5229 18.8526 60.5769 18.9749" fill="#3374B0"/>
  <path d="M61.3181 0.67028C61.2956 0.837839 61.4034 0.874068 61.4528 0.982755C61.6999 0.905769 61.9021 0.765381 62.1177 0.67028C62.0548 0.108731 61.6146 0.588765 61.3181 0.67028Z" fill="#FEFEFE"/>
  <path d="M62.9579 0.357758C62.4592 0.778919 61.7584 0.996293 61.3181 1.4718C61.3855 1.5352 61.399 1.65747 61.4978 1.6937C62.0459 1.34047 62.594 0.987236 63.178 0.670233C63.1196 0.54796 63.0972 0.393987 62.9579 0.357758Z" fill="#FEFEFE"/>
  <path d="M61.2731 2.49073C61.3315 2.56771 61.3989 2.63564 61.4528 2.71716C61.9335 2.40468 62.3918 2.05598 62.823 1.67557C63.3082 1.35857 63.771 1.00081 64.1977 0.606819C64.1753 0.498132 64.1124 0.398502 64.018 0.33963C63.1195 1.0778 62.1537 1.72992 61.2731 2.47261" fill="#FEFEFE"/>
  <path d="M65.3928 0.357758C64.2472 1.2182 62.9309 2.01976 61.7583 2.80774C61.5966 2.91643 61.3675 3.04323 61.3091 3.2606C61.372 3.2606 61.3585 3.35571 61.3989 3.39646C61.5786 3.42816 61.7898 3.26513 61.9291 3.17456C63.169 2.33677 64.3685 1.45368 65.6039 0.67929C65.577 0.54796 65.4961 0.434744 65.3838 0.366815" fill="#FEFEFE"/>
  <path d="M69.9123 0.357758C68.4971 1.60766 66.9787 2.90284 65.4827 4.18897C64.2158 5.27131 62.895 6.34007 61.673 7.39524C61.5517 7.49487 61.2238 7.67148 61.363 7.92961C61.5877 8.09717 61.7719 7.76205 61.8932 7.66242C63.9193 5.93249 65.9364 4.16633 67.9625 2.49074C68.7217 1.89749 69.445 1.25895 70.1324 0.57966C70.0201 0.54796 70.038 0.375872 69.9123 0.357758Z" fill="#FEFEFE"/>
  <path d="M66.3677 0.398558C65.5635 1.10049 64.6066 1.72544 63.7081 2.40474C63.0612 2.89836 62.4188 3.36933 61.8033 3.83125C61.6416 3.95353 61.2463 4.10297 61.3541 4.41092C61.6101 4.52413 61.8482 4.22524 62.019 4.09844C63.3667 3.11573 64.7145 2.08321 66.0038 1.11408C66.2239 0.95105 66.5609 0.837834 66.6238 0.534416C66.5204 0.507244 66.5519 0.339685 66.3587 0.398558" fill="#FEFEFE"/>
  <path d="M67.4323 0.398499C65.8959 1.75709 64.3101 3.07944 62.7826 4.36557C62.248 4.78221 61.7404 5.23507 61.2731 5.72416C61.5651 6.06833 61.8706 5.57924 62.0683 5.41168C63.4565 4.26594 64.8132 3.14737 66.1475 2.0288C66.7001 1.57594 67.2302 1.08232 67.6929 0.602287C67.5716 0.602287 67.6345 0.366798 67.4323 0.421142" fill="#FEFEFE"/>
  <path d="M70.932 0.398533C67.9355 3.03419 64.7908 5.75136 61.7988 8.33268C61.6146 8.48665 61.2866 8.6995 61.3136 8.90781C61.5472 9.15236 61.8437 8.80366 61.974 8.68591C64.2202 6.6752 66.5159 4.71431 68.7531 2.76247C69.5843 2.03789 70.4378 1.33596 71.1926 0.579678C71.0713 0.552506 71.0803 0.394004 70.9275 0.398533" fill="#FEFEFE"/>
  <path d="M71.9968 0.398492C70.1998 1.96992 68.4567 3.51418 66.5025 5.2577C65.011 6.58006 63.2544 8.05639 61.8033 9.33346C61.6596 9.46932 61.1744 9.8135 61.3541 10.0037C61.5338 10.1939 61.9157 9.6867 62.019 9.60518C62.32 9.33799 62.5895 9.15232 62.7243 9.02552C65.0604 6.96499 67.2707 4.94976 69.5484 2.96622C70.3436 2.27787 71.2331 1.58046 71.9429 0.873997C72.0238 0.792482 72.2664 0.692852 72.163 0.516236C72.0777 0.516236 72.1271 0.344148 71.9878 0.380377" fill="#FEFEFE"/>
  <path d="M73.4118 0.398499C71.4082 2.09673 69.445 3.81308 67.2122 5.7468C65.6263 7.10539 63.9372 8.60889 62.2704 10.0671C62.0413 10.2709 61.0979 10.8506 61.3405 11.0906C61.5067 11.2627 61.5516 11.0906 61.7358 10.9547C65.4466 7.7394 69.2068 4.45162 72.8592 1.24988C73.1018 1.03251 73.4837 0.896647 73.5691 0.534357C73.4792 0.534357 73.4792 0.416613 73.3894 0.398499" fill="#FEFEFE"/>
  <path d="M61.9381 11.4076C61.7359 11.5797 61.107 11.9465 61.408 12.1639C61.5338 12.2499 61.6012 12.1639 61.8033 11.9827C62.0055 11.8016 62.1223 11.6521 62.2032 11.5842C64.2293 9.79539 66.179 8.13339 68.1422 6.41251C70.1054 4.69163 72.0687 2.88924 73.9825 1.20006C74.2071 1.00081 74.836 0.747202 74.5126 0.398499H74.4227C70.3795 3.92177 66.0263 7.80733 61.9291 11.4076" fill="#FEFEFE"/>
  <path d="M75.4964 0.398499C74.2745 1.50801 73.0166 2.60394 71.7722 3.74515C68.3938 6.83367 64.975 9.94936 61.6281 13.0968C61.4933 13.219 61.1788 13.3504 61.363 13.5496C61.5472 13.7489 61.709 13.4953 61.8482 13.373C62.3244 12.9564 62.877 12.3993 63.196 12.1231C65.0649 10.4294 66.8124 8.83532 68.587 7.18237C70.8332 5.10374 73.1199 3.00698 75.3257 0.991748C75.4425 0.878533 75.7121 0.769846 75.6761 0.538886C75.5863 0.538886 75.5908 0.421142 75.5009 0.403027" fill="#FEFEFE"/>
  <path d="M74.4766 2.26885C70.3615 6.07742 66.2419 9.87693 62.1178 13.6764C61.9336 13.8395 61.1339 14.3829 61.363 14.6093C61.5921 14.8358 61.7179 14.4644 61.8482 14.3422C62.3693 13.8621 62.9623 13.3323 63.3083 12.9836C66.6013 9.92222 69.7595 7.0239 73.0165 4.03048C74.1262 3.01154 75.3571 1.95185 76.4219 0.910262C76.5476 0.792518 76.8711 0.615902 76.6061 0.375885H76.5162L74.4766 2.24621" fill="#FEFEFE"/>
  <path d="M75.7256 2.35943C75.0248 2.98438 74.3329 3.63651 73.6411 4.27504C69.7012 7.93417 65.6399 11.4846 61.6821 15.1437C61.5113 15.2977 61.2058 15.506 61.3721 15.6736C61.5383 15.8411 61.8213 15.4698 61.9022 15.4064C67.2393 10.5562 72.4551 5.89629 77.7203 1.06425C78.0033 0.806117 78.3402 0.516285 77.9404 0.394012C77.2036 1.02349 76.4713 1.69373 75.7256 2.35491" fill="#FEFEFE"/>
  <path d="M81.0806 2.18277C80.8021 2.33674 80.546 2.53147 80.3259 2.76243C74.1127 8.22395 67.9625 13.7625 61.8033 19.2874C61.5742 19.4912 61.2103 19.6451 61.3541 19.867C61.4439 19.9984 61.4484 20.0074 61.664 19.867C61.7719 19.7855 61.8752 19.695 61.9695 19.5953C68.295 13.8304 74.7731 8.22848 81.0716 2.58582C81.139 2.45449 81.3951 2.42279 81.2019 2.26881C81.139 2.26881 81.1255 2.19636 81.0716 2.18277" fill="#FEFEFE"/>
  <path d="M76.1748 7.753C71.5879 11.788 66.8169 15.7777 62.3064 19.8218C62.2256 19.8897 61.956 19.9848 62.1312 20.0437C62.7377 20.1026 63.1151 19.5319 63.479 19.1968C64.6919 18.1552 65.8959 17.159 67.073 16.1264C71.6868 12.0507 76.5072 8.08812 81.0312 4.00783C81.0985 3.94896 81.2872 3.88103 81.2513 3.74517C81.148 3.70894 81.13 3.5912 81.0312 3.56403C79.4543 4.98148 77.7786 6.32196 76.1568 7.753" fill="#FEFEFE"/>
  <path d="M80.7212 5.34372C79.3196 6.43965 77.7741 7.80276 76.3365 9.0436C72.0777 12.7118 67.7379 16.2894 63.5329 19.9576C63.4655 19.9576 63.3847 20.0753 63.5329 20.0436C64.1035 20.1387 64.4314 19.5908 64.7729 19.2873C70.0381 14.8946 75.2449 10.3343 80.4607 5.96867C80.5954 5.85093 80.9324 5.69242 80.856 5.43429C80.7931 5.43429 80.7841 5.36183 80.7212 5.34372Z" fill="#FEFEFE"/>
  <path d="M81.0806 6.41256C81.0806 6.32199 80.9503 6.41256 80.9458 6.45785C75.7255 10.7329 70.3884 15.1347 65.1727 19.378C65.0469 19.4776 64.7234 19.6135 64.8177 19.8671C65.0244 20.1116 65.1861 19.7811 65.3074 19.6905C66.5339 18.6942 67.7469 17.7251 68.9374 16.7514C72.8863 13.518 76.8307 10.194 80.7661 7.03751C80.9368 6.90165 81.1839 6.77938 81.2558 6.54842C81.1614 6.54842 81.1704 6.42615 81.0806 6.41256Z" fill="#FEFEFE"/>
  <path d="M78.6412 9.40144C75.5324 11.9556 72.3517 14.5188 69.2473 17.0141C68.0613 17.9651 66.7944 18.9025 65.7028 19.8671C65.7028 19.8671 65.4602 19.9577 65.6129 20.0437C66.1071 20.1614 66.4081 19.7222 66.7226 19.464C67.037 19.2059 67.3919 18.9568 67.6929 18.7078C71.8305 15.3475 76.0175 11.9646 80.1461 8.64063C80.4022 8.43685 81.0806 8.18777 80.7661 7.79831H80.6673C80.0293 8.35986 79.3195 8.84442 78.6322 9.40144" fill="#FEFEFE"/>
  <path d="M80.7212 8.86255C78.4345 10.5563 75.9457 12.6258 73.5332 14.5233C72.3517 15.4562 71.1522 16.3665 69.9886 17.2813C68.8251 18.196 67.7154 19.0338 66.7091 19.9124C66.7091 19.9124 66.507 19.9667 66.6193 20.0437C67.0685 20.1569 67.3875 19.7901 67.6795 19.5546C71.8036 16.285 75.9547 12.97 80.0428 9.75469C80.3349 9.52826 80.7257 9.3607 80.8874 8.99841C80.7976 8.99841 80.7976 8.87613 80.7077 8.86255" fill="#FEFEFE"/>
  <path d="M81.0806 9.93129C80.4697 10.3253 79.8811 10.76 79.3196 11.2265C78.7805 11.6341 78.2099 12.0507 77.6798 12.4718C74.6025 14.9173 71.3903 17.3265 68.3309 19.7176C68.2186 19.8082 67.9311 19.9486 68.0659 20.0301C68.5151 20.1569 68.7667 19.7992 69.0408 19.5773C72.0777 17.236 75.0921 14.9082 78.0797 12.5896C79.0231 11.856 80.0833 11.1495 80.9594 10.4023C81.0492 10.3298 81.3098 10.194 81.2244 10.0038C81.1615 10.0038 81.148 9.93129 81.0941 9.91318" fill="#FEFEFE"/>
  <path d="M81.0806 11.6702C77.2215 14.3421 73.2277 17.2585 69.3372 20.0436H69.9122C72.738 17.965 75.6671 15.9679 78.448 13.9436L79.8631 12.9156C80.3528 12.6031 80.8155 12.2454 81.2378 11.8468C81.1255 11.8468 81.1704 11.6748 81.0626 11.6702" fill="#FEFEFE"/>
  <path d="M80.7212 12.739C80.7212 12.7118 80.7212 12.6847 80.6763 12.6937C77.4237 15.1301 74.1577 17.5394 70.8422 19.9124C70.8422 19.9758 70.6535 20.0482 70.8422 20.0437H71.2914C74.0993 18.0058 76.952 15.8728 79.7104 13.8485C80.1417 13.5859 80.546 13.2734 80.9054 12.9156C80.829 12.8794 80.8335 12.7571 80.7257 12.739" fill="#FEFEFE"/>
  <path d="M80.7212 14.1203C77.9583 16.0766 75.2089 18.0511 72.4819 20.0437H73.057C75.0202 18.6217 77.0239 17.1726 78.9511 15.7687C79.652 15.3521 80.3079 14.8584 80.9009 14.2969C80.7886 14.2969 80.838 14.1248 80.7212 14.1203Z" fill="#FEFEFE"/>
  <path d="M80.6673 15.189C79.6969 16.0041 78.5783 16.8012 77.5225 17.639C76.624 18.3409 75.6986 19.0564 74.8675 19.7312C74.7821 19.8036 74.4946 20.0165 74.6473 20.0437H75.0966C76.5477 18.8662 78.0571 17.716 79.4813 16.5702C79.9979 16.2215 80.4741 15.8185 80.9009 15.3656C80.7751 15.3656 80.8425 15.1573 80.6763 15.189" fill="#FEFEFE"/>
  <path d="M80.6313 16.6201C79.4318 17.7115 78.0976 18.667 76.9116 19.7901C77.0104 19.8263 77.0239 19.9441 77.0913 20.012C77.7382 19.4912 78.3986 18.9885 79.041 18.4541C79.6879 17.9379 80.3079 17.3854 80.9009 16.8057C80.838 16.7242 80.8021 16.6065 80.6313 16.6291" fill="#FEFEFE"/>
  <path d="M80.6313 17.3265C79.9305 18.119 78.9961 18.9794 78.2862 19.7312C78.2054 19.8218 77.9673 20.0029 78.111 20.0437H78.466C79.3105 19.2194 80.1192 18.35 80.9458 17.5031C80.8155 17.4714 80.829 17.2948 80.6313 17.3265Z" fill="#FEFEFE"/>
  <path d="M80.6314 18.7077C80.236 19.0746 79.8092 19.4052 79.351 19.6905C79.378 19.8173 79.4588 19.9305 79.5711 19.9984C80.0204 19.6542 80.4696 19.3146 80.9189 18.9749C80.865 18.8527 80.847 18.6896 80.6493 18.7077" fill="#FEFEFE"/>
  <path d="M68.8475 0H68.9374C69.2788 0.366818 68.8161 0.516263 68.4881 0.801566C66.3856 2.64924 64.3685 4.42446 62.284 6.23591C62.0998 6.39442 61.4663 7.14164 61.3091 6.81558C61.2148 6.62085 61.9605 6.04571 62.1088 5.90985C64.3865 3.93084 66.6731 1.96995 68.8475 0.0226431V0Z" fill="#1D1D1B"/>
  <path d="M62.1177 0.67028C61.8886 0.765381 61.6999 0.905769 61.4528 0.982755C61.4034 0.874068 61.2956 0.837839 61.3181 0.67028C61.6146 0.588765 62.0548 0.108731 62.1177 0.67028Z" fill="#1D1D1B"/>
  <path d="M63.178 0.670233C62.594 0.987236 62.0459 1.34047 61.4978 1.6937C61.399 1.65747 61.3855 1.5352 61.3181 1.4718C61.7674 1.01894 62.4592 0.778919 62.9579 0.357758C63.0972 0.393987 63.1196 0.54796 63.178 0.670233Z" fill="#1D1D1B"/>
  <path d="M64.018 0.357745C64.1124 0.416617 64.1753 0.516246 64.1977 0.624933C63.771 1.01439 63.3082 1.3631 62.823 1.67557C62.3918 2.05145 61.9335 2.39563 61.4528 2.69904C61.3989 2.61753 61.3315 2.5496 61.2731 2.47261C62.1716 1.72992 63.1285 1.0778 64.018 0.33963" fill="#1D1D1B"/>
  <path d="M65.613 0.670226C64.3775 1.44462 63.178 2.3277 61.9381 3.1655C61.7988 3.25607 61.5877 3.4191 61.408 3.3874C61.3676 3.34664 61.381 3.2606 61.3181 3.25154C61.3676 3.04322 61.5967 2.91642 61.7674 2.79868C62.9399 2.0107 64.2562 1.20913 65.4018 0.348694C65.5141 0.416623 65.595 0.529839 65.622 0.661169" fill="#1D1D1B"/>
  <path d="M70.1324 0.57966C69.445 1.25895 68.7217 1.89749 67.9625 2.49074C65.9409 4.16633 63.9192 5.93249 61.8931 7.66243C61.7718 7.76205 61.5876 8.11529 61.363 7.92961C61.2148 7.67148 61.5517 7.47675 61.673 7.39524C62.895 6.34007 64.2157 5.27131 65.4826 4.18897C66.9786 2.90284 68.4971 1.60766 69.9122 0.357758C70.038 0.357758 70.0201 0.54796 70.1324 0.57966Z" fill="#1D1D1B"/>
  <path d="M66.6327 0.534416C66.5698 0.837834 66.2329 0.95105 66.0128 1.11408C64.7189 2.08321 63.3667 3.11573 62.0279 4.09844C61.8572 4.22524 61.6191 4.52413 61.363 4.41092C61.2462 4.10297 61.6416 3.95806 61.8123 3.83125C62.4278 3.37839 63.0702 2.89836 63.7171 2.40474C64.6156 1.72544 65.5725 1.10049 66.3767 0.398558C66.5698 0.339685 66.5384 0.507244 66.6417 0.534416" fill="#1D1D1B"/>
  <path d="M67.6929 0.57964C67.2437 1.05967 66.7001 1.53065 66.1475 2.00616C64.7997 3.12925 63.452 4.24329 62.0683 5.38904C61.8706 5.5566 61.5651 6.04569 61.2731 5.70151C61.7404 5.21242 62.248 4.75956 62.7826 4.34292C64.3101 3.0568 65.8959 1.72538 67.4323 0.375852C67.6345 0.321508 67.5716 0.534354 67.6929 0.556997" fill="#1D1D1B"/>
  <path d="M71.197 0.579643C70.4423 1.33592 69.5887 2.03786 68.7576 2.76244C66.5114 4.71428 64.2292 6.67517 61.9784 8.68588C61.8482 8.80815 61.5292 9.13874 61.318 8.90778C61.2911 8.69946 61.619 8.48662 61.8032 8.33264C64.7907 5.75133 67.9355 3.03416 70.932 0.398499C71.0847 0.398499 71.0757 0.552472 71.197 0.579643Z" fill="#1D1D1B"/>
  <path d="M72.172 0.534345C72.2753 0.710961 72.0327 0.810591 71.9518 0.892106C71.242 1.59857 70.3525 2.29145 69.5573 2.98433C67.2796 4.96787 65.0648 6.9831 62.7332 9.04363C62.5984 9.16137 62.3289 9.3561 62.0279 9.62329C61.9246 9.70933 61.5786 10.2211 61.363 10.0218C61.1474 9.82255 61.6595 9.48743 61.8123 9.35157C63.2633 8.05639 65.0199 6.58006 66.5114 5.27581C68.4656 3.53229 70.2087 1.98803 72.0057 0.416601C72.145 0.380372 72.0956 0.534345 72.1809 0.55246" fill="#1D1D1B"/>
  <path d="M73.5916 0.534357C73.5063 0.896647 73.1424 1.03251 72.8818 1.24988C69.2294 4.45162 65.4692 7.7394 61.7584 10.9547C61.5742 11.0906 61.5293 11.2627 61.3631 11.0906C61.1205 10.8506 62.0639 10.2709 62.293 10.0671C63.9373 8.60889 65.6264 7.11897 67.2348 5.7468C69.481 3.81308 71.4308 2.09673 73.4344 0.398499C73.5243 0.398499 73.5243 0.520771 73.6141 0.534357" fill="#1D1D1B"/>
  <path d="M74.4317 0.398499H74.5215C74.845 0.751731 74.216 1.00081 73.9914 1.20006C72.0686 2.88924 70.0874 4.71428 68.1512 6.41251C66.2149 8.11074 64.2382 9.79539 62.2121 11.5842C62.1312 11.6521 61.9875 11.8378 61.8123 11.9827C61.637 12.1276 61.5427 12.2499 61.4169 12.1639C61.1159 11.942 61.7449 11.5797 61.947 11.4076C66.0442 7.80733 70.3974 3.92177 74.4407 0.398499" fill="#1D1D1B"/>
  <path d="M75.6716 0.5344C75.7075 0.760831 75.4379 0.869518 75.3211 0.987262C73.1153 3.0025 70.8286 5.09925 68.5824 7.17789C66.7854 8.83084 65.0468 10.4249 63.1914 12.1186C62.8859 12.3949 62.3378 12.9519 61.8436 13.3685C61.7044 13.4908 61.4932 13.6765 61.3585 13.5451C61.2237 13.4138 61.4887 13.2236 61.6235 13.0923C64.9704 9.92223 68.3892 6.82919 71.7676 3.74066C73.012 2.59945 74.2699 1.50352 75.4918 0.394012C75.5817 0.394012 75.5772 0.516285 75.6671 0.529871" fill="#1D1D1B"/>
  <path d="M76.5162 0.398499H76.6061C76.8801 0.638516 76.5477 0.815132 76.4219 0.932876C75.3572 1.97446 74.1262 3.03416 73.0121 4.0531C69.7595 7.04652 66.6013 9.94031 63.3083 13.0062C62.9624 13.3322 62.3694 13.8621 61.8482 14.3648C61.7179 14.487 61.5472 14.8176 61.363 14.632C61.1788 14.4463 61.9336 13.8621 62.1178 13.6945C66.2329 9.89502 70.3525 6.09551 74.4766 2.29146L76.5162 0.421142" fill="#1D1D1B"/>
  <path d="M77.9313 0.398499C78.3312 0.520771 77.9942 0.810603 77.7112 1.06873C72.446 5.88719 67.2347 10.5788 61.8931 15.4109C61.8257 15.4743 61.5382 15.8637 61.363 15.6781C61.1878 15.4924 61.5023 15.3022 61.673 15.1482C65.6309 11.4846 69.6921 7.93413 73.632 4.27953C74.3239 3.64099 75.0157 2.98887 75.7165 2.36392C76.4174 1.73897 77.1946 1.03251 77.9313 0.403027" fill="#1D1D1B"/>
  <path d="M60.9004 16.9687V16.8827C66.8978 11.6386 72.8594 6.11364 78.8164 0.801563C79.0276 0.615889 79.2882 0.348701 79.4364 0.489088C79.652 0.71099 79.1399 0.978179 79.086 1.02347C77.6708 2.26884 76.3501 3.49609 75.0967 4.64636C73.5827 6.00495 71.9519 7.39977 70.4873 8.72212C67.6391 11.3306 64.8223 13.93 61.9516 16.4706C61.7719 16.6608 61.5787 16.8374 61.3766 17.005C61.1654 17.1272 61.0935 17.1499 60.9273 16.9597" fill="#1D1D1B"/>
  <path d="M60.9004 17.6842V17.5937C67.1899 12.0597 73.6096 6.37173 79.8183 0.801525C79.962 0.674723 80.2226 0.348662 80.4832 0.48905C80.5685 0.801525 80.2091 0.941912 80.0339 1.06871C79.4184 1.61668 78.8119 2.142 78.2369 2.67637C72.8459 7.49936 67.383 12.3495 61.9336 17.168C61.5787 17.4804 61.2687 18.0737 60.9138 17.7023" fill="#1D1D1B"/>
  <path d="M60.9003 19.0655V19.0202C67.2796 13.2372 73.8522 7.29561 80.218 1.51256C80.3932 1.35406 80.6358 0.941952 80.838 1.20008C80.9009 1.48992 80.555 1.68465 80.3887 1.82956C77.2215 4.61014 74.1801 7.38165 71.0803 10.2437C68.0703 13.0288 64.9346 15.8909 61.8213 18.6625C61.4304 19.0112 61.1249 19.5093 60.8913 19.0655" fill="#1D1D1B"/>
  <path d="M81.2109 2.26881C81.4041 2.42279 81.148 2.45449 81.0806 2.58582C74.7911 8.22848 68.304 13.8304 61.9785 19.5953C61.8842 19.695 61.7809 19.7855 61.673 19.867C61.4574 20.0074 61.4529 19.9984 61.3631 19.867C61.2103 19.6451 61.5742 19.4912 61.8123 19.2874C67.9715 13.7625 74.1218 8.22395 80.3349 2.76243C80.555 2.53147 80.8111 2.33674 81.0896 2.18277C81.1435 2.18277 81.157 2.26428 81.2199 2.26881" fill="#1D1D1B"/>
  <path d="M81.0356 3.56403C81.1345 3.5912 81.1524 3.70894 81.2558 3.74517C81.2917 3.88103 81.103 3.94896 81.0356 4.00783C76.4937 8.08359 71.6913 12.0507 67.0775 16.1264C65.9049 17.159 64.7009 18.1552 63.4835 19.1968C63.0971 19.5319 62.7197 20.1026 62.1357 20.0437C61.9605 19.9848 62.2301 19.8897 62.3109 19.8218C66.8034 15.7777 71.5924 11.788 76.1793 7.753C77.8011 6.32196 79.4767 4.98148 81.0536 3.56403" fill="#1D1D1B"/>
  <path d="M80.856 5.43429C80.9324 5.69242 80.5954 5.85093 80.4607 5.96867C75.2449 10.3343 70.0381 14.8946 64.7729 19.2873C64.4135 19.5862 64.1035 20.1387 63.5329 20.0436C63.3847 20.0753 63.4655 19.9576 63.5329 19.9576C67.7379 16.2849 72.0687 12.7118 76.3365 9.0436C77.7741 7.80276 79.3196 6.43965 80.7212 5.34372C80.7841 5.34372 80.7931 5.42523 80.856 5.43429Z" fill="#1D1D1B"/>
  <path d="M81.2557 6.54836C81.1839 6.77932 80.9368 6.90159 80.7661 7.03745C76.8306 10.2075 72.8862 13.5179 68.9373 16.7513C67.7468 17.725 66.5338 18.6941 65.3074 19.6904C65.1861 19.781 65.0244 20.1116 64.8177 19.867C64.7278 19.6134 65.0468 19.4776 65.1726 19.3779C70.3884 15.1346 75.7255 10.7328 80.9458 6.45779C80.9458 6.42156 81.0895 6.32193 81.076 6.4125C81.1704 6.4125 81.1614 6.53477 81.2557 6.54836Z" fill="#1D1D1B"/>
  <path d="M80.6673 7.79831H80.7571C81.0716 8.16513 80.3932 8.43685 80.1372 8.64063C76.0086 11.9646 71.8216 15.3475 67.684 18.7078C67.383 18.9568 67.0326 19.2059 66.7136 19.464C66.3946 19.7222 66.0981 20.1614 65.6039 20.0437C65.4512 19.9577 65.6938 19.8626 65.6938 19.8671C66.7855 18.9025 68.0524 17.9651 69.2384 17.0141C72.3517 14.5188 75.5279 11.9556 78.6322 9.40144C79.3106 8.84442 80.0294 8.35986 80.6673 7.79831Z" fill="#1D1D1B"/>
  <path d="M80.9008 8.99841C80.7391 9.3607 80.3483 9.52826 80.0563 9.75469C75.9681 12.97 71.817 16.285 67.6929 19.5546C67.4009 19.7901 67.0954 20.1569 66.6327 20.0437C66.5204 19.9667 66.718 19.9169 66.7225 19.9124C67.7288 19.0338 68.8969 18.1508 70.0021 17.2813C71.1072 16.4118 72.3651 15.4698 73.5466 14.5233C75.9456 12.6258 78.4345 10.5563 80.7346 8.86255C80.8245 8.86255 80.8245 8.98482 80.9143 8.99841" fill="#1D1D1B"/>
  <path d="M81.2109 10.0219C81.2963 10.2121 81.0357 10.3479 80.9459 10.4204C80.0474 11.1676 79.0096 11.8741 78.0662 12.6032C75.0697 14.9218 72.0597 17.2541 69.0273 19.5954C68.7532 19.8127 68.4882 20.1705 68.0524 20.0482C67.9176 19.9667 68.2052 19.8263 68.3175 19.7358C71.3589 17.3311 74.607 14.9218 77.6664 12.49C78.1965 12.0688 78.767 11.6522 79.3061 11.2446C79.8722 10.7781 80.4652 10.3434 81.0806 9.9494C81.1346 9.9494 81.148 10.0309 81.2109 10.04" fill="#1D1D1B"/>
  <path d="M81.2558 11.8468C80.8335 12.2454 80.3707 12.6031 79.8811 12.9156L78.4659 13.9436C75.6671 15.9724 72.738 17.965 69.9302 20.0436H69.3551C73.2456 17.2585 77.2395 14.3421 81.094 11.6702C81.2108 11.6702 81.1614 11.8468 81.2737 11.8468" fill="#1D1D1B"/>
  <path d="M80.9009 12.9157C80.5415 13.2734 80.1372 13.5859 79.7059 13.8486C76.9475 15.8728 74.0948 18.0058 71.287 20.0437H70.8377C70.649 20.0437 70.8377 19.9758 70.8377 19.9124C74.1532 17.5394 77.4192 15.1302 80.6718 12.6938C80.7122 12.6938 80.7167 12.6938 80.7167 12.739C80.8245 12.739 80.8201 12.8794 80.8964 12.9157" fill="#1D1D1B"/>
  <path d="M80.9009 14.2969C80.3079 14.8584 79.652 15.3521 78.9511 15.7687C77.0239 17.1726 75.0202 18.6217 73.057 20.0437H72.4819C75.2044 18.0466 77.9493 16.0721 80.7212 14.1203C80.838 14.1203 80.7886 14.2924 80.9009 14.2969Z" fill="#1D1D1B"/>
  <path d="M80.9009 15.3656C80.4741 15.8184 79.9979 16.2215 79.4813 16.5702C78.0571 17.7159 76.5477 18.8662 75.0966 20.0436H74.6473C74.4946 20.0165 74.7821 19.8036 74.8675 19.7312C75.6986 19.0564 76.6375 18.3454 77.5225 17.6389C78.5783 16.8011 79.6969 16.0041 80.6673 15.189C80.838 15.1573 80.7661 15.361 80.8919 15.3656" fill="#1D1D1B"/>
  <path d="M80.9009 16.7922C80.3079 17.3718 79.6879 17.9243 79.041 18.4406C78.3986 18.9749 77.7382 19.4776 77.0913 19.9984C77.0239 19.9305 77.0104 19.8127 76.9116 19.7765C78.0976 18.6625 79.4318 17.7069 80.6313 16.6065C80.8021 16.6065 80.838 16.7016 80.9009 16.7831" fill="#1D1D1B"/>
  <path d="M80.9458 17.5257C80.1192 18.3726 79.3105 19.2421 78.466 20.0663H78.111C77.9673 20.0255 78.2054 19.8444 78.2862 19.7538C78.9961 19.0021 79.9305 18.1416 80.6313 17.3491C80.829 17.3174 80.8155 17.494 80.9458 17.5257Z" fill="#1D1D1B"/>
  <path d="M80.9008 18.9749C80.4516 19.3146 80.0023 19.6542 79.5531 19.9984C79.4408 19.9305 79.3644 19.8172 79.333 19.6904C79.7912 19.4051 80.218 19.0746 80.6133 18.7077C80.811 18.7077 80.829 18.8526 80.8829 18.9749" fill="#1D1D1B"/>
</svg>