<svg xmlns="http://www.w3.org/2000/svg" width="19" height="12" viewBox="0 0 19 12" fill="none">
  <path d="M16.443 0H1.84275C0.826875 0 0 0.817575 0 1.82202V10.178C0 11.1824 0.826875 12 1.84275 12H16.443C17.4589 12 18.2858 11.1824 18.2858 10.178V1.82202C18.2858 0.817575 17.4589 0 16.443 0ZM17.5365 10.178C17.5365 10.772 17.0471 11.2592 16.443 11.2592H1.84275C1.23863 11.2592 0.74925 10.7753 0.74925 10.178V1.82202C0.74925 1.22803 1.23863 0.740823 1.84275 0.740823H16.443C17.0438 0.740823 17.5365 1.22469 17.5365 1.82202V10.178Z" fill="#3374B0"/>
  <path d="M16.7096 1.84871C16.7096 1.64515 16.5409 1.4783 16.335 1.4783C16.2574 1.4783 16.1797 1.50166 16.1156 1.54838L9.36224 6.3337C9.23061 6.42713 9.05511 6.42713 8.92349 6.3337L2.17011 1.54838C2.00136 1.42825 1.76849 1.46829 1.64699 1.63514C1.52549 1.802 1.56599 2.03225 1.73474 2.15238L7.16511 5.99999L1.75499 9.83425C1.64699 9.90099 1.57611 10.0178 1.57611 10.1513C1.57611 10.3548 1.74486 10.5217 1.95074 10.5217C2.02836 10.5217 2.10599 10.4983 2.17011 10.4516L7.80636 6.45717L8.48474 6.9377C8.68049 7.07786 8.90999 7.1446 9.13949 7.1446C9.36899 7.1446 9.59849 7.07452 9.79424 6.9377L10.4726 6.45717L16.1089 10.4516C16.173 10.4983 16.2506 10.5217 16.3282 10.5217C16.5341 10.5217 16.7029 10.3548 16.7029 10.1513C16.7029 10.0211 16.6354 9.90767 16.5341 9.84093L11.1139 5.99999L16.5206 2.16573C16.6286 2.09899 16.6995 1.9822 16.6995 1.84871H16.7096Z" fill="#3374B0"/>
</svg>