<svg xmlns="http://www.w3.org/2000/svg" width="14" height="14" viewBox="0 0 14 14" fill="none">
  <g clip-path="url(#clip0_1_2108)">
    <path d="M1.23529 14H11.8547C12.5341 14 13.09 13.4441 13.09 12.7647V6.58C13.09 6.35353 12.9047 6.16824 12.6782 6.16824C12.4518 6.16824 12.2665 6.35353 12.2665 6.58V12.7647C12.2665 12.9912 12.0812 13.1765 11.8547 13.1765H1.23529C1.00882 13.1765 0.823529 12.9912 0.823529 12.7647V2.1453C0.823529 1.91883 1.00882 1.73353 1.23529 1.73353H7.42C7.64647 1.73353 7.83177 1.54824 7.83177 1.32177C7.83177 1.0953 7.64647 0.910004 7.42 0.910004H1.23529C0.555882 0.910004 0 1.46589 0 2.1453V12.7647C0 13.4441 0.555882 14 1.23529 14Z" fill="#3374B0"/>
    <path d="M13.7447 0.0329412C13.6953 0.0123529 13.6418 0 13.5882 0H11.1629C10.9365 0 10.7512 0.185294 10.7512 0.411765C10.7512 0.638235 10.9365 0.823529 11.1629 0.823529H12.5959L8.70058 4.71882C8.53999 4.87941 8.53999 5.13882 8.70058 5.29941C8.77882 5.37765 8.88587 5.41882 8.99293 5.41882C9.09999 5.41882 9.20293 5.37765 9.28529 5.29941L13.1806 1.40412V2.83706C13.1806 3.06353 13.3659 3.24882 13.5923 3.24882C13.8188 3.24882 14.0041 3.06353 14.0041 2.83706V0.411765C14.0041 0.358235 13.9918 0.304706 13.9712 0.255294C13.93 0.152353 13.8476 0.0741176 13.7488 0.0329412H13.7447Z" fill="#3374B0"/>
  </g>
  <defs>
    <clipPath id="clip0_1_2108">
      <rect width="14" height="14" fill="white"/>
    </clipPath>
  </defs>
</svg>