<svg xmlns="http://www.w3.org/2000/svg" width="15" height="17" viewBox="0 0 15 17" fill="none">
  <path d="M8.33596 1H2.21293C1.54357 1 1 1.55556 1 2.23967V14.7603C1 15.4444 1.54357 16 2.21293 16H10.5462C11.2155 16 11.7591 15.4444 11.7591 14.7603V13.1488" stroke="#3374B0" stroke-linecap="round" stroke-linejoin="round"/>
  <path d="M11.7637 4.49854V6.4315" stroke="#3374B0" stroke-linecap="round" stroke-linejoin="round"/>
  <path d="M8.336 1V3.74564C8.336 4.16345 8.66394 4.49862 9.07274 4.49862H11.7367L8.336 1Z" stroke="#3374B0" stroke-linecap="round" stroke-linejoin="round"/>
  <path d="M3.4483 12.8823H6.44468" stroke="#3374B0" stroke-linecap="round" stroke-linejoin="round"/>
  <path d="M3.4483 10.7933H6.44468" stroke="#3374B0" stroke-linecap="round" stroke-linejoin="round"/>
  <path d="M3.4483 8.49756H8.58303" stroke="#3374B0" stroke-linecap="round" stroke-linejoin="round"/>
  <path d="M3.4483 6.20183H8.58303" stroke="#3374B0" stroke-linecap="round" stroke-linejoin="round"/>
  <path d="M9.90821 12.8501L7.92261 13.4195L8.47966 11.3901L12.7384 7.03746C13.0169 6.75279 13.4482 6.72984 13.6997 6.98695L14.2164 7.51496C14.4679 7.77208 14.4455 8.21285 14.1669 8.49751L9.90821 12.8501Z" stroke="#3374B0" stroke-width="0.95" stroke-linecap="round" stroke-linejoin="round"/>
  <path d="M12.2935 7.49658L13.7221 8.95664" stroke="#3374B0" stroke-width="0.95" stroke-linecap="round" stroke-linejoin="round"/>
  <path d="M8.47968 11.3906L9.90823 12.8507" stroke="#3374B0" stroke-width="0.95" stroke-linecap="round" stroke-linejoin="round"/>
</svg>